<svg viewBox="0 0 101 34" fill="none" xmlns="http://www.w3.org/2000/svg">
        <g clip-path="url(#clip0_499_4165)">
        <path d="M21.7178 24.04H23.4197C24.603 24.04 25.3814 24.4551 25.3814 25.5463C25.3814 26.6375 24.603 27.1239 23.4197 27.1239H22.1367V29.7407H21.7168V24.0411L21.7178 24.04ZM23.312 26.7874C24.3663 26.7874 24.9514 26.3866 24.9514 25.5463C24.9514 24.706 24.3663 24.3766 23.312 24.3766H22.1377V26.7874H23.312ZM23.7249 26.8904L25.4942 29.7397H25.0109L23.3261 27.0056L23.7249 26.8894V26.8904Z" fill="white"/>
        <path d="M32.6592 24.0396H36.1859V24.3832H33.0761V26.5411H35.6934V26.8848H33.0761V29.3976H36.2755V29.7413H32.6582V24.0416L32.6592 24.0396Z" fill="white"/>
        <path d="M44.8655 24.3822H42.791V24.0386H47.357V24.3822H45.2825V29.7393H44.8655V24.3822Z" fill="white"/>
        <path d="M54.0137 27.6068V24.0396H54.4336V27.5609C54.4336 29.0243 55.1315 29.4802 55.9291 29.4802C56.7267 29.4802 57.4427 29.0254 57.4427 27.5609V24.0396H57.8395V27.6068C57.8395 29.3344 56.9281 29.8432 55.9291 29.8432C54.9301 29.8432 54.0137 29.3333 54.0137 27.6068Z" fill="white"/>
        <path d="M65.126 24.0396H66.8279C68.0112 24.0396 68.7897 24.4546 68.7897 25.5458C68.7897 26.637 68.0112 27.1234 66.8279 27.1234H65.5449V29.7402H65.125V24.0406L65.126 24.0396ZM66.7202 26.7869C67.7745 26.7869 68.3596 26.3861 68.3596 25.5458C68.3596 24.7055 67.7745 24.3761 66.7202 24.3761H65.5459V26.7869H66.7202ZM67.1331 26.8899L68.9024 29.7392H68.4191L66.7343 27.0051L67.1331 26.8889V26.8899Z" fill="white"/>
        <path d="M75.752 24.0396H76.1951L78.5153 28.0698L79.1507 29.1957H79.1689C79.1548 28.646 79.1155 28.0943 79.1155 27.5415V24.0396H79.5093V29.7392H79.0661L76.7459 25.709L76.1105 24.5831H76.0923C76.1064 25.1379 76.1457 25.6549 76.1457 26.2056V29.7392H75.752V24.0396Z" fill="white"/>
        <path d="M18.8768 8.93836V11.3849C18.8768 11.5572 19.0148 11.6959 19.184 11.6959H26.1075C26.2766 11.6959 26.4146 11.8356 26.4146 12.0069C26.4156 12.4434 26.4196 12.8666 26.4186 13.2817C22.5062 12.7606 18.6734 12.3557 15.1387 12.0436V5.68213C15.1387 5.50979 15.2766 5.37109 15.4458 5.37109H26.4065C26.5767 5.37109 26.7137 5.51081 26.7137 5.68213V8.31424C26.7137 8.48658 26.5757 8.62528 26.4065 8.62528H19.183C19.0128 8.62528 18.8758 8.76499 18.8758 8.93632L18.8768 8.93836Z" fill="white"/>
        <path d="M12.6121 10.4099H9.31C9.20829 10.4099 9.11161 10.3477 9.08241 10.2498C9.08241 10.2498 9.08241 10.2488 9.08241 10.2477C8.5668 8.47228 7.11161 7.7421 5.37747 8.40191C4.86488 8.59771 4.54968 8.95464 4.49127 9.54103C4.43084 10.1468 4.61211 10.6465 5.16398 10.8657C5.70375 11.0799 6.26166 11.2492 6.81755 11.4226C4.37143 11.2737 2.28281 11.1758 0.688648 11.1115C0.277772 9.27384 1.01191 7.14552 2.57485 6.15733C4.23346 5.10796 6.05219 4.98252 7.92128 5.20178C9.23246 5.35577 10.4329 5.82386 11.3916 6.78451C12.312 7.70641 12.7742 8.82513 12.8558 10.1458C12.8649 10.2885 12.7541 10.4099 12.6131 10.4099H12.6121Z" fill="white"/>
        <path d="M55.981 16.7523C55.8309 17.9791 55.2579 19.1457 54.4079 20.0748C53.268 19.5587 52.0514 19.0723 50.7715 18.6124C51.3757 18.2605 51.8118 17.6833 52.0998 16.9266C52.2448 16.5442 52.4251 16.381 52.85 16.3943C53.7805 16.4239 54.7111 16.4096 55.6748 16.4065C55.8581 16.4065 56.0031 16.5687 55.981 16.7523Z" fill="white"/>
        <path d="M55.4035 11.0065C54.4518 10.98 53.4992 10.9963 52.5455 10.9983C52.4287 10.9983 52.3219 10.931 52.2706 10.825C52.2303 10.7424 52.195 10.6659 52.1729 10.5863C51.7872 9.28812 50.9332 8.52735 49.6019 8.37234C48.1306 8.20102 46.8295 8.6069 46.1135 9.98261C44.896 12.323 44.8849 14.7441 45.9936 17.0967C44.5475 16.6888 43.052 16.3094 41.5213 15.9535C41.044 13.7355 41.2867 11.5072 42.2817 9.31566C44.5324 4.35841 50.5656 4.33189 53.4297 6.31133C54.8355 7.28218 55.6492 8.64463 55.9493 10.3395C56.0369 10.8352 55.9201 11.0208 55.4035 11.0065Z" fill="white"/>
        <path d="M41.2739 5.69776V8.30947C41.2739 8.48181 41.1359 8.62255 40.9647 8.62255H36.5025V14.8984C35.2416 14.6567 33.9687 14.4303 32.6908 14.2182V8.68679H28.1832C28.012 8.68679 27.873 8.54606 27.873 8.37269V5.69572C27.873 5.52541 28.01 5.38672 28.1782 5.38672H40.9667C41.1369 5.38672 41.2739 5.52643 41.2739 5.69776Z" fill="white"/>
        <path d="M95.5883 4.58398C95.549 5.50384 95.5107 6.41657 95.4725 7.3405C95.2499 7.19365 95.0344 7.05088 94.8149 6.90607C94.4171 7.52305 94.0153 8.13595 93.6104 8.74681H93.6286L85.1271 21.8023C85.0515 21.9185 84.9226 21.9889 84.7857 21.9889C84.4966 21.9889 84.2026 21.992 83.9005 21.993C83.5984 21.994 83.4302 21.6677 83.5873 21.4178C83.8058 21.0691 84.0062 20.7519 84.2076 20.4368C85.1522 18.9632 86.0827 17.4783 87.0566 16.0241C87.3244 15.6243 87.3083 15.3521 87.0586 14.9543C85.9246 13.1523 84.8259 11.3269 83.7172 9.5086L83.7132 9.50248C83.5279 9.19654 83.7444 8.8029 84.0989 8.8029C85.2398 8.79984 86.3244 8.79474 87.408 8.82329C87.5722 8.82839 87.7716 9.08028 87.8803 9.26181C88.4976 10.2908 89.0928 11.333 89.7585 12.4793C90.4695 11.3514 91.0515 10.3887 91.7726 9.36991C91.7736 9.36787 91.7746 9.36685 91.7766 9.36481C92.4483 8.32053 93.122 7.27626 93.7957 6.22994C93.5762 6.08513 93.3617 5.9444 93.1391 5.79653C93.9599 5.39065 94.7696 4.98986 95.5883 4.58398Z" fill="white"/>
        <path d="M7.66609 3.43457H5.24414V5.88719H7.66609V3.43457Z" fill="white"/>
        <path d="M27.181 19.0602C27.0501 19.9811 26.9272 20.854 26.8023 21.7341C26.7802 21.8891 26.6492 22.0033 26.4952 22.0033H15.4488C15.2776 22.0033 15.1387 21.8626 15.1387 21.6892V12.0439C18.6734 12.356 22.5062 12.7609 26.4186 13.282C26.4176 13.7399 26.4106 14.1886 26.3864 14.6353C26.3794 14.7689 26.0118 14.9861 25.8094 14.9881C23.751 15.0146 21.6925 15.0034 19.6331 15.0024H19.1729C19.0017 15.0024 18.8627 15.1431 18.8627 15.3165V18.3871C18.8627 18.5605 19.0017 18.7012 19.1729 18.7012H26.8738C27.0621 18.7012 27.2072 18.8715 27.181 19.0602Z" fill="white"/>
        <path d="M13.2649 17.1704C13.1964 19.1927 12.2518 20.7163 10.4029 21.5158C8.07559 22.5213 5.66975 22.5581 3.32131 21.5923C1.29412 20.7591 0.300162 19.1315 0.00308254 17.0063C-0.0231007 16.8196 0.120907 16.6524 0.306204 16.6524H3.51668C3.65464 16.6524 3.77448 16.7462 3.81174 16.8798C4.04034 17.713 4.40087 18.4717 5.28908 18.8103C6.26894 19.1825 7.26995 19.2141 8.277 18.9031C8.9195 18.7052 9.30117 18.2759 9.37267 17.6059C9.4492 16.8982 9.23571 16.2587 8.57509 15.961C7.77952 15.603 6.92755 15.3766 6.1058 15.0778C4.98193 14.6689 3.81476 14.3436 2.75233 13.8082C1.59926 13.2259 0.934603 12.2214 0.687876 11.1118C2.27398 11.1761 4.34951 11.2729 6.77952 11.4208C6.80469 11.4218 6.82886 11.4269 6.85303 11.4341C7.14206 11.5238 7.43007 11.6156 7.71607 11.7145C8.71507 12.0643 9.74024 12.3662 10.6909 12.823C12.4754 13.6807 13.3324 15.1839 13.2649 17.1704Z" fill="white"/>
        <path d="M54.4097 20.0746C53.6997 20.8527 52.7954 21.4626 51.7823 21.8022C50.023 22.3926 48.2355 22.41 46.4621 21.8838C44.458 21.2892 43.0029 19.9951 42.1922 18.0677C41.8961 17.365 41.6725 16.6603 41.5215 15.9536C43.0522 16.3095 44.5477 16.6889 45.9938 17.0968C46.025 17.1641 46.0582 17.2304 46.0915 17.2977C46.7511 18.6184 47.9797 19.0895 49.4127 19.0028C49.9374 18.9702 50.3886 18.8376 50.7722 18.6122H50.7733C52.0532 19.0722 53.2697 19.5586 54.4097 20.0746Z" fill="white"/>
        <path d="M36.5041 14.898V21.6756C36.5041 21.8479 36.3661 21.9876 36.1959 21.9876H32.9996C32.8294 21.9876 32.6914 21.8479 32.6914 21.6756V14.2178C33.9694 14.4299 35.2423 14.6563 36.5031 14.898H36.5041Z" fill="white"/>
        <path d="M78.6662 13.5054C78.8444 13.5105 78.9924 13.3646 78.9924 13.1831C78.9894 12.2051 78.6873 11.7921 77.9723 11.6585C76.6017 11.4015 76.0599 11.6881 75.645 12.9771C75.6027 13.1097 75.4809 13.2005 75.3429 13.2005H72.3127C72.1425 13.2005 71.9995 13.0648 71.9955 12.8925C71.9471 11.0324 73.1979 9.37518 75.1123 8.81735C76.5403 8.40127 77.9945 8.38598 79.4325 8.72659C81.6269 9.24567 82.7125 10.6071 82.8041 12.9363C82.8504 14.1224 82.8222 15.3114 82.8233 16.4995C82.8253 18.1954 82.8233 19.8903 82.8233 21.6628C82.8233 21.8402 82.6823 21.985 82.507 21.985C81.6057 21.9881 80.6047 22.0003 79.6047 21.9677C79.4285 21.9616 79.2573 21.8137 79.0408 21.6658C78.9461 21.6016 78.8222 21.5975 78.7246 21.6566C77.5181 22.3776 75.9773 22.4521 74.4104 22.0564C72.6662 21.6158 71.5433 20.1759 71.4013 18.3576C71.2573 16.5209 72.0559 14.9515 73.7185 14.2682C74.7185 13.8572 75.8353 13.7002 76.9139 13.5288C77.4768 13.4401 78.0619 13.488 78.6651 13.5044L78.6662 13.5054ZM78.9703 16.4699C78.9582 16.2874 78.7941 16.1548 78.6148 16.1762C77.8283 16.2711 77.0357 16.3384 76.2653 16.5097C75.5262 16.6739 75.1989 17.2684 75.2795 17.9976C75.357 18.6992 75.789 19.1092 76.5423 19.1999C78.1516 19.3917 79.0911 18.3739 78.9703 16.4699Z" fill="white"/>
        <path d="M63.5766 8.05562H59.9825C59.5897 8.05562 59.2715 7.73337 59.2715 7.33565V5.25525C59.2715 4.86569 59.5796 4.54241 59.9643 4.54139C59.9663 4.54139 59.9694 4.54139 59.9714 4.54139C64.1557 4.53935 68.341 4.55669 72.5253 4.52304C73.207 4.51794 73.343 4.73516 73.3369 5.37967C73.3309 6.06701 73.3369 6.75232 73.3329 7.44578C73.3299 7.90673 73.1879 8.07296 72.7226 8.0648C71.4951 8.04543 70.2664 8.05257 68.9875 8.05562C68.5947 8.05562 68.2775 8.3789 68.2775 8.7756V21.2212C68.2775 21.619 67.9593 21.9412 67.5665 21.9412H65.0006C64.6078 21.9412 64.2896 21.619 64.2896 21.2212V8.7756C64.2896 8.37788 63.9714 8.05562 63.5786 8.05562H63.5766Z" fill="white"/>
        <path d="M100.999 0C100.946 1.0045 100.893 1.99881 100.839 3.00637C100.602 2.84932 100.37 2.69635 100.135 2.54134C99.1394 4.08838 97.5412 6.50327 96.2179 8.52145C94.8302 10.818 93.4415 12.7659 92.0236 15.1328C93.375 17.304 94.7285 19.4772 96.1525 21.7656C96.2119 21.8604 96.1434 21.9838 96.0337 21.9849C94.6469 21.9859 93.3509 21.9981 92.0568 21.9634C91.8987 21.9583 91.7104 21.6779 91.6016 21.4882C90.9793 20.4042 90.376 19.3089 89.7124 18.1208C89.0558 19.2875 88.4274 20.3552 87.8514 21.4525C87.6328 21.8686 87.375 22.0185 86.9128 22.0063C86.5996 21.9981 86.4083 21.994 86.1726 21.992C85.9964 21.99 85.8927 21.7911 85.9914 21.6432L94.5201 8.84167C94.5201 8.84167 94.5231 8.83657 94.5251 8.83453C95.9219 6.66643 97.8755 3.63253 99.0437 1.81932C98.8091 1.66329 98.5805 1.51236 98.3418 1.35531C99.232 0.901503 100.11 0.453811 100.999 0.0010198V0Z" fill="white"/>
        <path d="M7.84578 21.5869H5.42383V24.0395H7.84578V21.5869Z" fill="white"/>
        </g>
        <defs>
        <clipPath id="clip0_499_4165">
        <rect width="101" height="33.6667" fill="white"/>
        </clipPath>
        </defs>
        </svg>