<svg width="16" height="17" viewBox="0 0 16 17" fill="none" xmlns="http://www.w3.org/2000/svg">
<path d="M13.761 0.000294148C13.8176 0.000294148 13.8739 0.000294148 13.9305 0.000294148C13.9668 0.00941274 14.0024 0.0223553 14.0392 0.0270616C14.5759 0.0941274 15.009 0.350625 15.3374 0.795377C15.5896 1.13718 15.6858 1.53398 15.7169 1.95667C15.7752 2.74646 15.8579 3.53448 15.9004 4.32486C15.9519 5.28202 15.9963 6.24094 15.9997 7.19928C16.0042 8.42205 15.9782 9.64541 15.9394 10.8679C15.9137 11.6789 15.848 12.4886 15.79 13.2981C15.76 13.7167 15.7455 14.1426 15.6586 14.55C15.358 15.9628 13.8213 16.5394 12.7006 15.6749C11.6655 14.8763 10.632 14.075 9.59745 13.2752C9.01661 12.826 8.45049 12.353 7.78869 12.0318C7.54441 11.9133 7.29362 11.8089 7.03575 11.6933C7.01651 11.7745 7.00547 11.8259 6.99216 11.8768C6.60324 13.3843 6.21516 14.8924 5.82454 16.3993C5.68839 16.9247 5.25615 17.1365 4.78486 16.9097C3.66394 16.3705 2.54358 15.8293 1.42379 15.2872C1.02694 15.0951 0.880035 14.7674 0.992976 14.3247C1.18291 13.5796 1.37652 12.8357 1.56844 12.0913C1.63467 11.8339 1.70034 11.5765 1.77026 11.3047C1.56221 11.3047 1.37454 11.3047 1.18659 11.3047C0.688686 11.3047 0.271172 11.0138 0.088881 10.5361C0.0532154 10.4426 0.0294383 10.3443 0 10.2481C0 8.78003 0 7.31164 0 5.84355C0.00735957 5.83149 0.0198142 5.82002 0.0215126 5.80707C0.0891641 5.27172 0.594427 4.76726 1.26188 4.78108C2.35365 4.80344 3.44598 4.79491 4.53803 4.78314C4.95554 4.77873 5.3756 4.75373 5.78915 4.69696C6.86563 4.5493 7.85323 4.14249 8.72987 3.47889C10.0529 2.47732 11.3564 1.44809 12.6777 0.44387C12.8894 0.282971 13.1459 0.181784 13.3902 0.073537C13.5034 0.0235319 13.6367 0.0229436 13.761 0V0.000294148ZM1.43115 9.83779C1.49428 9.83779 1.54947 9.83779 1.60467 9.83779C2.65482 9.83779 3.70498 9.82984 4.75485 9.84161C5.15821 9.84602 5.5644 9.87279 5.96409 9.92838C7.28343 10.1122 8.48927 10.6129 9.56405 11.4259C10.8953 12.4331 12.2107 13.4629 13.5306 14.4865C13.6857 14.6068 13.8442 14.6365 14.0191 14.5645C14.2009 14.4892 14.2796 14.3318 14.2957 14.1394C14.3546 13.4332 14.4313 12.7278 14.4624 12.0201C14.5196 10.7205 14.5768 9.4198 14.5824 8.11908C14.5875 6.9016 14.5417 5.68324 14.4882 4.46664C14.4514 3.63214 14.3642 2.7997 14.2974 1.96667C14.2815 1.76901 14.2026 1.60634 14.0174 1.52633C13.8349 1.4475 13.6713 1.4981 13.5164 1.61811C12.3358 2.5332 11.143 3.43153 9.97477 4.3631C8.3919 5.62558 6.61739 6.26947 4.6204 6.25506C3.6127 6.24771 2.60501 6.25388 1.59731 6.25388H1.43172V9.83749L1.43115 9.83779ZM4.66088 15.2295C4.99489 13.935 5.32494 12.6572 5.6564 11.3727C5.58224 11.3591 5.51827 11.3382 5.45373 11.3371C4.74381 11.3247 4.0339 11.3138 3.32398 11.3085C3.28916 11.3085 3.23142 11.3547 3.22208 11.39C2.98572 12.2877 2.75333 13.1864 2.52603 14.0868C2.51669 14.1241 2.55123 14.2015 2.58463 14.2179C3.26652 14.5547 3.95153 14.8854 4.66088 15.2292V15.2295Z" fill="#006838"/>
</svg>