<svg width="312" height="312" viewBox="0 0 312 312" fill="none" xmlns="http://www.w3.org/2000/svg">
<path fill-rule="evenodd" clip-rule="evenodd" d="M6.66666 275.168C2.66366 279.171 0.414795 284.6 0.414795 290.261C0.414795 295.922 2.66366 301.352 6.66666 305.355C10.6697 309.358 16.0989 311.607 21.76 311.607C27.4211 311.607 32.8503 309.358 36.8533 305.355L156 186.165L275.168 305.333C279.192 309.219 284.58 311.37 290.174 311.321C295.767 311.272 301.118 309.029 305.073 305.073C309.029 301.118 311.272 295.767 311.321 290.174C311.37 284.58 309.219 279.192 305.333 275.168L186.165 156L305.333 36.832C309.334 32.829 311.58 27.4009 311.578 21.7418C311.576 16.0827 309.326 10.6562 305.323 6.656C301.32 2.65583 295.892 0.409683 290.232 0.411683C284.573 0.413684 279.147 2.66367 275.147 6.66667L156 125.835L36.832 6.66667C32.8085 2.78063 27.4196 0.63035 21.8261 0.678956C16.2326 0.727563 10.8819 2.97116 6.92652 6.92654C2.97115 10.8819 0.727551 16.2326 0.678945 21.8261C0.630339 27.4196 2.78062 32.8085 6.66666 36.832L125.835 156L6.66666 275.168Z" fill="url(#paint0_linear_2003_3)"/>
<defs>
<linearGradient id="paint0_linear_2003_3" x1="2.29394" y1="338.784" x2="333.391" y2="315.89" gradientUnits="userSpaceOnUse">
<stop stop-color="#003510"/>
<stop offset="1" stop-color="#018D1E"/>
</linearGradient>
</defs>
</svg>
