<svg width="17" height="18" viewBox="0 0 17 18" fill="none" xmlns="http://www.w3.org/2000/svg">
<path d="M11.6001 6V3.9C11.6001 3.05992 11.6001 2.63988 11.4366 2.31901C11.2928 2.03677 11.0633 1.8073 10.7811 1.66349C10.4602 1.5 10.0402 1.5 9.2001 1.5H3.5001C2.66002 1.5 2.23998 1.5 1.91911 1.66349C1.63687 1.8073 1.4074 2.03677 1.26359 2.31901C1.1001 2.63988 1.1001 3.05992 1.1001 3.9V9.6C1.1001 10.4401 1.1001 10.8601 1.26359 11.181C1.4074 11.4632 1.63687 11.6927 1.91911 11.8365C2.23998 12 2.66002 12 3.5001 12H5.6001M8.0001 16.5H13.7001C14.5402 16.5 14.9602 16.5 15.2811 16.3365C15.5633 16.1927 15.7928 15.9632 15.9366 15.681C16.1001 15.3601 16.1001 14.9401 16.1001 14.1V8.4C16.1001 7.55992 16.1001 7.13988 15.9366 6.81901C15.7928 6.53677 15.5633 6.3073 15.2811 6.16349C14.9602 6 14.5402 6 13.7001 6H8.0001C7.16002 6 6.73998 6 6.41911 6.16349C6.13687 6.3073 5.9074 6.53677 5.76359 6.81901C5.6001 7.13988 5.6001 7.55992 5.6001 8.4V14.1C5.6001 14.9401 5.6001 15.3601 5.76359 15.681C5.9074 15.9632 6.13687 16.1927 6.41911 16.3365C6.73998 16.5 7.16002 16.5 8.0001 16.5Z" stroke="#6B7280" stroke-width="1.8" stroke-linecap="round" stroke-linejoin="round"/>
</svg>
