<svg width="18" height="18" viewBox="0 0 18 18" fill="none" xmlns="http://www.w3.org/2000/svg">
<path d="M3.85001 11.0493C3.1511 11.0493 2.80165 11.0493 2.52599 10.9351C2.15845 10.7829 1.86644 10.4909 1.71419 10.1233C1.60001 9.84769 1.60001 9.49823 1.60001 8.79932V3.69932C1.60001 2.85924 1.60001 2.4392 1.7635 2.11833C1.90731 1.83609 2.13678 1.60662 2.41903 1.46281C2.7399 1.29932 3.15994 1.29932 4.00001 1.29932H9.10001C9.79893 1.29932 10.1484 1.29932 10.424 1.4135C10.7916 1.56574 11.0836 1.85775 11.2358 2.22529C11.35 2.50095 11.35 2.8504 11.35 3.54932M9.25001 16.2993H14.2C15.0401 16.2993 15.4601 16.2993 15.781 16.1358C16.0632 15.992 16.2927 15.7625 16.4365 15.4803C16.6 15.1594 16.6 14.7394 16.6 13.8993V8.94932C16.6 8.10924 16.6 7.6892 16.4365 7.36833C16.2927 7.08609 16.0632 6.85662 15.781 6.71281C15.4601 6.54932 15.0401 6.54932 14.2 6.54932H9.25001C8.40994 6.54932 7.9899 6.54932 7.66903 6.71281C7.38679 6.85662 7.15731 7.08609 7.0135 7.36833C6.85001 7.6892 6.85001 8.10924 6.85001 8.94932V13.8993C6.85001 14.7394 6.85001 15.1594 7.0135 15.4803C7.15731 15.7625 7.38679 15.992 7.66903 16.1358C7.9899 16.2993 8.40994 16.2993 9.25001 16.2993Z" stroke="#39B54A" stroke-width="1.5" stroke-linecap="round" stroke-linejoin="round"/>
</svg>
