<svg width="20" height="18" viewBox="0 0 20 18" fill="none" xmlns="http://www.w3.org/2000/svg">
<path d="M1.10004 4.50005L8.44846 9.64395C9.04352 10.0605 9.34105 10.2688 9.66467 10.3494C9.95054 10.4207 10.2495 10.4207 10.5354 10.3494C10.859 10.2688 11.1566 10.0605 11.7516 9.64395L19.1 4.50005M5.42004 16.2H14.78C16.2922 16.2 17.0482 16.2 17.6258 15.9058C18.1338 15.6469 18.5469 15.2339 18.8058 14.7258C19.1 14.1483 19.1 13.3922 19.1 11.88V6.12005C19.1 4.60791 19.1 3.85184 18.8058 3.27427C18.5469 2.76624 18.1338 2.35319 17.6258 2.09433C17.0482 1.80005 16.2922 1.80005 14.78 1.80005H5.42004C3.90789 1.80005 3.15182 1.80005 2.57426 2.09433C2.06622 2.35319 1.65318 2.76624 1.39432 3.27427C1.10004 3.85184 1.10004 4.60791 1.10004 6.12005V11.88C1.10004 13.3922 1.10004 14.1483 1.39432 14.7258C1.65318 15.2339 2.06622 15.6469 2.57426 15.9058C3.15182 16.2 3.90789 16.2 5.42004 16.2Z" stroke="#006838" stroke-width="1.8" stroke-linecap="round" stroke-linejoin="round"/>
</svg>
