<svg width="22" height="22" viewBox="0 0 22 22" fill="none" xmlns="http://www.w3.org/2000/svg">
<g clip-path="url(#clip0_2001_793)">
<path d="M21.8 11C21.8 5.03527 16.9647 0.199951 11 0.199951C5.03533 0.199951 0.200012 5.03527 0.200012 11C0.200012 16.3905 4.14939 20.8585 9.31251 21.6687V14.1218H6.57032V11H9.31251V8.62058C9.31251 5.91383 10.9249 4.4187 13.3918 4.4187C14.5731 4.4187 15.8094 4.62964 15.8094 4.62964V7.28745H14.4476C13.106 7.28745 12.6875 8.12002 12.6875 8.97495V11H15.6828L15.204 14.1218H12.6875V21.6687C17.8506 20.8585 21.8 16.3905 21.8 11Z" fill="#1877F2"/>
<path d="M15.204 14.1218L15.6828 11H12.6875V8.97495C12.6875 8.12087 13.106 7.28745 14.4476 7.28745H15.8094V4.62964C15.8094 4.62964 14.5735 4.4187 13.3919 4.4187C10.9249 4.4187 9.31253 5.91383 9.31253 8.62058V11H6.57034V14.1218H9.31253V21.6687C10.4307 21.8437 11.5693 21.8437 12.6875 21.6687V14.1218H15.204Z" fill="white"/>
</g>
<defs>
<clipPath id="clip0_2001_793">
<rect width="21.6" height="21.6" fill="white" transform="translate(0.200012 0.199951)"/>
</clipPath>
</defs>
</svg>
