<svg width="21" height="19" viewBox="0 0 21 19" fill="none" xmlns="http://www.w3.org/2000/svg">
<g clip-path="url(#clip0_1386_18177)">
<path d="M8.20365 19C7.81372 18.8375 7.71469 18.5323 7.71592 18.1412C7.72414 15.5128 7.7188 12.8844 7.72332 10.2564C7.72332 10.1048 7.67771 9.99189 7.58115 9.87739C5.124 6.95748 2.66932 4.03514 0.212577 1.11402C0.019867 0.885006 -0.0742278 0.638253 0.0687635 0.356422C0.206002 0.0858807 0.448841 0.00242007 0.747972 0.00242007C7.2323 0.00564561 13.7162 0.00685518 20.2005 9.2442e-07C20.5909 -0.000402267 20.8555 0.131038 20.9997 0.487056V0.768887C20.7384 1.10999 20.4902 1.46117 20.2145 1.79017C17.9464 4.4968 15.6717 7.19858 13.4052 9.90642C13.3316 9.99431 13.286 10.1326 13.2852 10.2475C13.2737 12.1978 13.2638 14.1484 13.2724 16.0986C13.2745 16.522 13.1114 16.778 12.7227 16.9623C11.3236 17.6239 9.93516 18.3077 8.54264 18.9835C8.5373 18.9859 8.53524 18.9948 8.53196 19.0004L8.20365 19ZM18.9983 1.2636H2.01558C2.06818 1.33416 2.10434 1.38819 2.14625 1.43738C4.33673 4.04522 6.52597 6.65387 8.72179 9.25728C8.92025 9.49274 9.01476 9.7395 9.01394 10.0435C9.00901 12.3909 9.01106 14.7387 9.01106 17.0861V17.3534C9.10351 17.311 9.17008 17.282 9.23541 17.2501C10.0851 16.8377 10.9332 16.4216 11.7858 16.0152C11.9338 15.9446 11.9876 15.8628 11.9872 15.6979C11.9831 13.7996 11.9892 11.9014 11.9892 10.0036C11.9892 9.75321 12.0496 9.53347 12.2156 9.3359C14.1653 7.01997 16.1126 4.70202 18.0598 2.38448C18.3663 2.01959 18.6716 1.65389 18.9983 1.2636Z" fill="white"/>
</g>
<defs>
<clipPath id="clip0_1386_18177">
<rect width="21" height="19" fill="white"/>
</clipPath>
</defs>
</svg>
