<svg width="21" height="19" viewBox="0 0 21 19" fill="none" xmlns="http://www.w3.org/2000/svg">
<path d="M11.6999 4.69985L10.6959 2.69188C10.407 2.11398 10.2625 1.82501 10.047 1.6139C9.85635 1.42721 9.62662 1.28523 9.37439 1.19823C9.08917 1.09985 8.76611 1.09985 8.11999 1.09985H4.67993C3.67183 1.09985 3.16778 1.09985 2.78274 1.29604C2.44405 1.46861 2.16869 1.74398 1.99612 2.08267C1.79993 2.46771 1.79993 2.97176 1.79993 3.97985V4.69985M1.79993 4.69985H15.4799C16.9921 4.69985 17.7481 4.69985 18.3257 4.99414C18.8337 5.25299 19.2468 5.66604 19.5056 6.17408C19.7999 6.75164 19.7999 7.50771 19.7999 9.01985V12.9799C19.7999 14.492 19.7999 15.2481 19.5056 15.8256C19.2468 16.3337 18.8337 16.7467 18.3257 17.0056C17.7481 17.2999 16.9921 17.2999 15.4799 17.2999H6.11993C4.60778 17.2999 3.85171 17.2999 3.27415 17.0056C2.76611 16.7467 2.35307 16.3337 2.09421 15.8256C1.79993 15.2481 1.79993 14.492 1.79993 12.9799V4.69985Z" stroke="#006838" stroke-width="1.8" stroke-linecap="round" stroke-linejoin="round"/>
</svg>
