<svg version="1.2" xmlns="http://www.w3.org/2000/svg" viewBox="0 0 33 31" width="33" height="31"><defs><clipPath clipPathUnits="userSpaceOnUse" id="cp1"><path d="m0 0h33v31h-33z"/></clipPath></defs><style>.a{fill:#fff}</style><filter id="f0"><feFlood flood-color="#667085" flood-opacity="1" /><feBlend mode="normal" in2="SourceGraphic"/><feComposite in2="SourceAlpha" operator="in" /></filter><g clip-path="url(#cp1)" filter="url(#f0)"><path class="a" d="m13.2 29.1h-6.7q-0.1-0.4-0.1-0.8 0-5.8 0-11.6c0-0.2 0.1-0.6-0.1-0.8-0.2-0.3-0.5-0.6-0.8-0.6-0.3 0-0.7 0.3-0.9 0.6-0.1 0.2-0.1 0.6-0.1 0.8q0 6.5 0 12.9c0 1.2 0.3 1.4 1.5 1.4q3.8 0 7.7 0c1.1 0 1.4-0.3 1.4-1.3q0-2.4 0-4.9h3q0 2 0 3.9 0 2.3 2.3 2.3 3.5 0 6.9 0c1.1 0 1.4-0.3 1.4-1.3q0-6.4 0-12.7c0-0.7-0.2-1.3-1-1.3-0.6 0-0.9 0.4-0.9 1.2q0 5.6 0 11.2 0 0.5 0 1h-6.8q0-0.5 0-1 0-2 0-4 0-1.2-1.1-1.2-2.3 0-4.6 0c-0.8 0.1-1.1 0.4-1.1 1.2q0 2 0 4.1c0 0.3 0 0.6 0 0.9z"/><path class="a" d="m16.9 2.4c0.5 0.6 1.2 1.4 1.9 2.1q6 5.9 12 11.9c0.3 0.3 0.6 0.7 0.9 0.8 0.4 0.1 0.9 0.1 1.1-0.1 0.3-0.2 0.2-0.7 0.2-1.1 0-0.2-0.3-0.3-0.4-0.5q-7.5-7.4-15-14.8c-0.9-0.9-1.1-0.9-2.1 0q-2.5 2.5-5.1 5.1c-0.2 0.2-0.4 0.4-0.7 0.7 0-1.1 0-2 0-2.9 0-0.9-0.3-1.3-1-1.3-0.7 0.1-0.9 0.6-0.9 1.3 0 1.4 0 2.8 0 4.1 0 0.4-0.2 0.9-0.5 1.2-2.2 2.2-4.4 4.4-6.7 6.7q-0.1 0.1-0.2 0.2c-0.4 0.4-0.6 0.9-0.1 1.4 0.3 0.4 1 0.4 1.5-0.1 1.1-1.1 2.2-2.3 3.4-3.4 3.8-3.7 7.7-7.4 11.7-11.3z"/></g></svg>