<svg width="19" height="19" viewBox="0 0 19 19" fill="none" xmlns="http://www.w3.org/2000/svg">
<path d="M10.684 1.48748C10.3678 1.24155 10.2097 1.11859 10.0352 1.07132C9.88113 1.02961 9.71877 1.02961 9.56474 1.07132C9.39017 1.11859 9.23207 1.24155 8.91588 1.48748L2.8118 6.23509C2.40377 6.55245 2.19975 6.71113 2.05278 6.90985C1.92258 7.08588 1.82559 7.28418 1.76658 7.49502C1.69995 7.73304 1.69995 7.9915 1.69995 8.50842V15.0199C1.69995 16.028 1.69995 16.532 1.89614 16.917C2.06871 17.2557 2.34408 17.5311 2.68277 17.7037C3.06781 17.8999 3.57186 17.8999 4.57995 17.8999H6.37995C6.63197 17.8999 6.75799 17.8999 6.85425 17.8508C6.93892 17.8077 7.00776 17.7388 7.0509 17.6542C7.09995 17.5579 7.09995 17.4319 7.09995 17.1799V11.2399C7.09995 10.7358 7.09995 10.4838 7.19804 10.2913C7.28433 10.1219 7.42201 9.98424 7.59136 9.89796C7.78388 9.79986 8.0359 9.79986 8.53995 9.79986H11.0599C11.564 9.79986 11.816 9.79986 12.0085 9.89796C12.1779 9.98424 12.3156 10.1219 12.4019 10.2913C12.5 10.4838 12.5 10.7358 12.5 11.2399V17.1799C12.5 17.4319 12.5 17.5579 12.549 17.6542C12.5921 17.7388 12.661 17.8077 12.7457 17.8508C12.8419 17.8999 12.9679 17.8999 13.22 17.8999H15.02C16.028 17.8999 16.5321 17.8999 16.9171 17.7037C17.2558 17.5311 17.5312 17.2557 17.7038 16.917C17.8999 16.532 17.8999 16.028 17.8999 15.0199V8.50842C17.8999 7.9915 17.8999 7.73304 17.8333 7.49502C17.7743 7.28418 17.6773 7.08588 17.5471 6.90985C17.4001 6.71113 17.1961 6.55245 16.7881 6.23509L10.684 1.48748Z" stroke="#006838" stroke-width="1.8" stroke-linecap="round" stroke-linejoin="round"/>
</svg>
