<svg width="22" height="22" viewBox="0 0 22 22" fill="none" xmlns="http://www.w3.org/2000/svg">
<rect x="1.34998" y="1.55005" width="18.9" height="18.9" rx="5.4" fill="url(#paint0_radial_2001_728)"/>
<rect x="1.34998" y="1.55005" width="18.9" height="18.9" rx="5.4" fill="url(#paint1_radial_2001_728)"/>
<rect x="1.34998" y="1.55005" width="18.9" height="18.9" rx="5.4" fill="url(#paint2_radial_2001_728)"/>
<path d="M15.525 7.2875C15.525 7.84669 15.0717 8.3 14.5125 8.3C13.9533 8.3 13.5 7.84669 13.5 7.2875C13.5 6.72831 13.9533 6.275 14.5125 6.275C15.0717 6.275 15.525 6.72831 15.525 7.2875Z" fill="white"/>
<path fill-rule="evenodd" clip-rule="evenodd" d="M10.8 14.375C12.6639 14.375 14.175 12.864 14.175 11C14.175 9.13604 12.6639 7.625 10.8 7.625C8.93603 7.625 7.42499 9.13604 7.42499 11C7.42499 12.864 8.93603 14.375 10.8 14.375ZM10.8 13.025C11.9184 13.025 12.825 12.1184 12.825 11C12.825 9.88162 11.9184 8.975 10.8 8.975C9.68161 8.975 8.77499 9.88162 8.77499 11C8.77499 12.1184 9.68161 13.025 10.8 13.025Z" fill="white"/>
<path fill-rule="evenodd" clip-rule="evenodd" d="M4.04999 10.73C4.04999 8.46179 4.04999 7.32768 4.49141 6.46134C4.8797 5.69928 5.49927 5.07971 6.26133 4.69142C7.12767 4.25 8.26178 4.25 10.53 4.25H11.07C13.3382 4.25 14.4723 4.25 15.3386 4.69142C16.1007 5.07971 16.7203 5.69928 17.1086 6.46134C17.55 7.32768 17.55 8.46179 17.55 10.73V11.27C17.55 13.5382 17.55 14.6723 17.1086 15.5387C16.7203 16.3007 16.1007 16.9203 15.3386 17.3086C14.4723 17.75 13.3382 17.75 11.07 17.75H10.53C8.26178 17.75 7.12767 17.75 6.26133 17.3086C5.49927 16.9203 4.8797 16.3007 4.49141 15.5387C4.04999 14.6723 4.04999 13.5382 4.04999 11.27V10.73ZM10.53 5.6H11.07C12.2264 5.6 13.0125 5.60105 13.6201 5.65069C14.2119 5.69905 14.5146 5.7867 14.7258 5.89428C15.2338 6.15314 15.6468 6.56619 15.9057 7.07423C16.0133 7.28537 16.1009 7.58804 16.1493 8.1799C16.1989 8.78752 16.2 9.57362 16.2 10.73V11.27C16.2 12.4264 16.1989 13.2125 16.1493 13.8201C16.1009 14.412 16.0133 14.7146 15.9057 14.9258C15.6468 15.4338 15.2338 15.8469 14.7258 16.1057C14.5146 16.2133 14.2119 16.3009 13.6201 16.3493C13.0125 16.399 12.2264 16.4 11.07 16.4H10.53C9.37361 16.4 8.58751 16.399 7.97989 16.3493C7.38803 16.3009 7.08535 16.2133 6.87421 16.1057C6.36618 15.8469 5.95313 15.4338 5.69427 14.9258C5.58669 14.7146 5.49904 14.412 5.45068 13.8201C5.40104 13.2125 5.39999 12.4264 5.39999 11.27V10.73C5.39999 9.57362 5.40104 8.78752 5.45068 8.1799C5.49904 7.58804 5.58669 7.28537 5.69427 7.07423C5.95313 6.56619 6.36618 6.15314 6.87421 5.89428C7.08535 5.7867 7.38803 5.69905 7.97989 5.65069C8.58751 5.60105 9.37361 5.6 10.53 5.6Z" fill="white"/>
<defs>
<radialGradient id="paint0_radial_2001_728" cx="0" cy="0" r="1" gradientUnits="userSpaceOnUse" gradientTransform="translate(8.09997 15.725) rotate(-55.3758) scale(17.2257)">
<stop stop-color="#B13589"/>
<stop offset="0.79309" stop-color="#C62F94"/>
<stop offset="1" stop-color="#8A3AC8"/>
</radialGradient>
<radialGradient id="paint1_radial_2001_728" cx="0" cy="0" r="1" gradientUnits="userSpaceOnUse" gradientTransform="translate(7.42498 21.125) rotate(-65.1363) scale(15.2511)">
<stop stop-color="#E0E8B7"/>
<stop offset="0.444662" stop-color="#FB8A2E"/>
<stop offset="0.71474" stop-color="#E2425C"/>
<stop offset="1" stop-color="#E2425C" stop-opacity="0"/>
</radialGradient>
<radialGradient id="paint2_radial_2001_728" cx="0" cy="0" r="1" gradientUnits="userSpaceOnUse" gradientTransform="translate(0.337477 2.22505) rotate(-8.1301) scale(26.2513 5.61489)">
<stop offset="0.156701" stop-color="#406ADC"/>
<stop offset="0.467799" stop-color="#6A45BE"/>
<stop offset="1" stop-color="#6A45BE" stop-opacity="0"/>
</radialGradient>
</defs>
</svg>
