<svg width="24" height="25" viewBox="0 0 24 25" fill="none" xmlns="http://www.w3.org/2000/svg">
<rect x="1.5" y="1.94141" width="21" height="21" rx="6" fill="url(#paint0_radial_0_24425)"/>
<rect x="1.5" y="1.94141" width="21" height="21" rx="6" fill="url(#paint1_radial_0_24425)"/>
<rect x="1.5" y="1.94141" width="21" height="21" rx="6" fill="url(#paint2_radial_0_24425)"/>
<path d="M17.25 8.31641C17.25 8.93773 16.7463 9.44141 16.125 9.44141C15.5037 9.44141 15 8.93773 15 8.31641C15 7.69509 15.5037 7.19141 16.125 7.19141C16.7463 7.19141 17.25 7.69509 17.25 8.31641Z" fill="white"/>
<path fill-rule="evenodd" clip-rule="evenodd" d="M12 16.1914C14.0711 16.1914 15.75 14.5125 15.75 12.4414C15.75 10.3703 14.0711 8.69141 12 8.69141C9.92893 8.69141 8.25 10.3703 8.25 12.4414C8.25 14.5125 9.92893 16.1914 12 16.1914ZM12 14.6914C13.2426 14.6914 14.25 13.684 14.25 12.4414C14.25 11.1988 13.2426 10.1914 12 10.1914C10.7574 10.1914 9.75 11.1988 9.75 12.4414C9.75 13.684 10.7574 14.6914 12 14.6914Z" fill="white"/>
<path fill-rule="evenodd" clip-rule="evenodd" d="M4.5 12.1414C4.5 9.62117 4.5 8.36105 4.99047 7.39845C5.4219 6.55172 6.11031 5.86331 6.95704 5.43188C7.91965 4.94141 9.17976 4.94141 11.7 4.94141H12.3C14.8202 4.94141 16.0804 4.94141 17.043 5.43188C17.8897 5.86331 18.5781 6.55172 19.0095 7.39845C19.5 8.36105 19.5 9.62117 19.5 12.1414V12.7414C19.5 15.2616 19.5 16.5218 19.0095 17.4844C18.5781 18.3311 17.8897 19.0195 17.043 19.4509C16.0804 19.9414 14.8202 19.9414 12.3 19.9414H11.7C9.17976 19.9414 7.91965 19.9414 6.95704 19.4509C6.11031 19.0195 5.4219 18.3311 4.99047 17.4844C4.5 16.5218 4.5 15.2616 4.5 12.7414V12.1414ZM11.7 6.44141H12.3C13.5849 6.44141 14.4583 6.44257 15.1334 6.49773C15.7911 6.55146 16.1274 6.64885 16.362 6.76839C16.9265 7.05601 17.3854 7.51495 17.673 8.07943C17.7926 8.31403 17.8899 8.65034 17.9437 9.30796C17.9988 9.9831 18 10.8565 18 12.1414V12.7414C18 14.0263 17.9988 14.8997 17.9437 15.5748C17.8899 16.2325 17.7926 16.5688 17.673 16.8034C17.3854 17.3679 16.9265 17.8268 16.362 18.1144C16.1274 18.234 15.7911 18.3313 15.1334 18.3851C14.4583 18.4402 13.5849 18.4414 12.3 18.4414H11.7C10.4151 18.4414 9.54169 18.4402 8.86656 18.3851C8.20893 18.3313 7.87263 18.234 7.63803 18.1144C7.07354 17.8268 6.6146 17.3679 6.32698 16.8034C6.20745 16.5688 6.11006 16.2325 6.05633 15.5748C6.00117 14.8997 6 14.0263 6 12.7414V12.1414C6 10.8565 6.00117 9.9831 6.05633 9.30796C6.11006 8.65034 6.20745 8.31403 6.32698 8.07943C6.6146 7.51495 7.07354 7.05601 7.63803 6.76839C7.87263 6.64885 8.20893 6.55146 8.86656 6.49773C9.54169 6.44257 10.4151 6.44141 11.7 6.44141Z" fill="white"/>
<defs>
<radialGradient id="paint0_radial_0_24425" cx="0" cy="0" r="1" gradientUnits="userSpaceOnUse" gradientTransform="translate(9 17.6914) rotate(-55.3758) scale(19.1397)">
<stop stop-color="#B13589"/>
<stop offset="0.79309" stop-color="#C62F94"/>
<stop offset="1" stop-color="#8A3AC8"/>
</radialGradient>
<radialGradient id="paint1_radial_0_24425" cx="0" cy="0" r="1" gradientUnits="userSpaceOnUse" gradientTransform="translate(8.25 23.6914) rotate(-65.1363) scale(16.9457)">
<stop stop-color="#E0E8B7"/>
<stop offset="0.444662" stop-color="#FB8A2E"/>
<stop offset="0.71474" stop-color="#E2425C"/>
<stop offset="1" stop-color="#E2425C" stop-opacity="0"/>
</radialGradient>
<radialGradient id="paint2_radial_0_24425" cx="0" cy="0" r="1" gradientUnits="userSpaceOnUse" gradientTransform="translate(0.375001 2.69141) rotate(-8.1301) scale(29.1682 6.23877)">
<stop offset="0.156701" stop-color="#406ADC"/>
<stop offset="0.467799" stop-color="#6A45BE"/>
<stop offset="1" stop-color="#6A45BE" stop-opacity="0"/>
</radialGradient>
</defs>
</svg>
