<svg width="22" height="18" viewBox="0 0 22 18" fill="none" xmlns="http://www.w3.org/2000/svg">
<path d="M15.1709 10.6481C14.3267 10.6481 13.4824 10.6488 12.6382 10.6481C12.399 10.6481 12.129 10.6408 12.114 10.3343C12.0975 9.98356 12.386 9.99094 12.6409 9.99027C14.3294 9.99027 16.0179 9.99027 17.7057 9.99027C17.9441 9.99027 18.2196 9.98021 18.2313 10.2947C18.2436 10.6341 17.9592 10.6475 17.7029 10.6481C16.8587 10.6501 16.0145 10.6488 15.1702 10.6488L15.1709 10.6481Z" fill="#667085"/>
<path d="M15.1748 11.7036C16.0342 11.7036 16.8942 11.7036 17.7535 11.7036C17.9817 11.7036 18.2215 11.7116 18.2311 12.0087C18.2407 12.3279 17.9926 12.3595 17.7459 12.3595C16.0266 12.3608 14.3073 12.3608 12.588 12.3595C12.3399 12.3595 12.0638 12.3118 12.1261 12.0074C12.1522 11.8806 12.429 11.723 12.5969 11.717C13.4555 11.6875 14.3155 11.7036 15.1755 11.7036H15.1748Z" fill="#667085"/>
<path d="M15.1618 8.92878C14.3313 8.92878 13.5015 8.93079 12.6709 8.92744C12.4249 8.9261 12.1248 8.95426 12.1117 8.60957C12.0987 8.25616 12.3927 8.27561 12.6449 8.27561C14.3347 8.27561 16.0246 8.27561 17.7137 8.27561C17.9502 8.27561 18.2229 8.25616 18.2291 8.58409C18.2352 8.93683 17.9461 8.92677 17.6959 8.92744C16.851 8.93079 16.0061 8.92878 15.1612 8.92878H15.1618Z" fill="#667085"/>
<path d="M7.01305 6.55473C7.92376 6.56076 8.6748 7.30379 8.67343 8.19637C8.67206 9.11041 7.90868 9.84874 6.96988 9.84405C6.03861 9.83936 5.26906 9.07956 5.2814 8.17692C5.29373 7.26892 6.06259 6.54869 7.01305 6.55473Z" fill="#667085"/>
<path d="M3.86328 12.3274C3.89069 11.9337 3.89138 11.577 3.94551 11.2282C4.03323 10.6643 4.39025 10.2874 4.89871 10.0305C5.14061 9.90848 5.32837 9.91988 5.56684 10.0916C6.44123 10.7219 7.53765 10.7199 8.41067 10.0869C8.6368 9.92324 8.80195 9.91921 9.03631 10.0279C9.62632 10.3001 9.97032 10.7501 10.0532 11.3717C10.0937 11.6769 10.0601 11.9921 10.0601 12.3274H3.86328Z" fill="#667085"/>
<path d="M15.1877 6.55859C16.034 6.55859 16.881 6.55859 17.7273 6.55859C17.9712 6.55859 18.235 6.56262 18.2309 6.88451C18.2261 7.20305 17.9568 7.20707 17.717 7.20707C16.0237 7.20841 14.3311 7.20908 12.6378 7.20707C12.4014 7.20707 12.1239 7.21042 12.1136 6.89524C12.102 6.54049 12.3959 6.55926 12.6481 6.55926C13.4944 6.55859 14.3414 6.55859 15.1877 6.55859Z" fill="#667085"/>
<path d="M14.8939 14.9466C13.7845 14.9466 12.675 14.9299 11.5663 14.9567C11.199 14.9654 10.8132 15.0365 10.4719 15.1686C9.07606 15.7071 7.69457 16.2825 6.30692 16.8404C5.40923 17.2019 4.79113 16.9477 4.41218 16.0679C4.3553 15.9364 4.28814 15.8077 4.24771 15.6716C4.10381 15.188 3.90234 14.8896 3.26574 14.9151C2.6072 14.9413 2.15904 14.3411 2.14671 13.6195C2.13232 12.7913 2.1563 11.9624 2.13437 11.1349C2.12683 10.8579 2.06653 10.5703 1.96648 10.3107C1.7054 9.63006 1.408 8.96348 1.12841 8.28952C0.83786 7.58941 1.03796 7.07975 1.75337 6.81419C2.06859 6.69683 2.17549 6.53655 2.14739 6.21533C2.11655 5.86058 2.13985 5.50181 2.14191 5.14505C2.14671 4.33898 2.5236 3.95606 3.34249 3.95271C5.02069 3.946 6.69957 3.9574 8.37778 3.94265C8.66079 3.93997 8.96093 3.88632 9.22202 3.78304C11.3683 2.93003 13.5069 2.05757 15.6491 1.19383C16.6681 0.78275 17.2423 1.01344 17.6665 2.00191C17.8981 2.54108 18.1283 3.08025 18.3428 3.62612C18.4305 3.84876 18.5464 3.95606 18.8088 3.98423C19.4598 4.05464 19.8689 4.5301 19.8915 5.17723C19.8929 5.22015 19.8963 5.26374 19.8915 5.30599C19.7229 6.71426 20.1039 8.0025 20.7207 9.26123C21.2278 10.296 21.0613 10.6889 20.069 11.3026C19.9683 11.3649 19.9039 11.5547 19.9004 11.6868C19.8833 12.3433 19.8977 13.0005 19.8901 13.6577C19.8812 14.437 19.3721 14.9399 18.571 14.946C17.3451 14.9547 16.1192 14.9486 14.8932 14.9486L14.8939 14.9466ZM10.9434 4.60051C8.46206 4.60051 5.98074 4.60051 3.49872 4.60051C2.89981 4.60051 2.81552 4.68501 2.81552 5.26777C2.81552 7.98171 2.81552 10.6957 2.81621 13.4096C2.81621 14.1037 2.98889 14.2767 3.681 14.2767C8.57102 14.2767 13.461 14.2767 18.3511 14.2767C19.0747 14.2767 19.22 14.1359 19.2206 13.425C19.222 10.7681 19.2213 8.11114 19.222 5.45487C19.222 4.76481 19.0555 4.60118 18.3435 4.60118C15.8766 4.59984 13.4103 4.60051 10.9434 4.60051ZM10.8406 3.84474L10.8591 3.91985H17.7508C17.5006 3.32368 17.2683 2.76171 17.0299 2.20175C16.7921 1.64381 16.5379 1.53919 15.9766 1.76452C14.9008 2.19706 13.8249 2.62893 12.7504 3.06348C12.1124 3.32167 11.4779 3.58387 10.8406 3.84474ZM4.6808 14.9681C4.81374 15.29 4.92338 15.5656 5.04193 15.8379C5.27081 16.3623 5.52435 16.4575 6.07462 16.2362C6.50428 16.0632 6.9353 15.8922 7.36496 15.7178C7.92002 15.4918 8.4744 15.2638 9.02946 15.0372C9.02261 15.0144 9.01575 14.9916 9.0089 14.9688L4.6808 14.9681ZM2.12067 8.73346V7.4298C1.54368 7.53173 1.5382 7.68262 2.12067 8.73346ZM19.9189 10.6192C20.4486 10.2691 20.4233 9.76821 19.9189 9.25519V10.6192Z" fill="#667085" stroke="#667085" stroke-width="0.75"/>
</svg>
