<svg width="33" height="31" viewBox="0 0 33 31" fill="none" xmlns="http://www.w3.org/2000/svg">
<path d="M24.051 17.8566C23.9104 16.8351 23.7163 15.8214 23.666 14.7998C23.651 14.4855 23.974 14.1005 24.2452 13.838C25.6513 12.477 27.1077 11.1615 28.5121 9.79896C30.3501 8.01675 30.3836 5.69863 28.636 4.06573C26.9101 2.45483 24.4344 2.52398 22.5395 4.27632C20.2295 6.41214 17.9512 8.57782 15.6529 10.7262C13.1035 13.1088 13.4282 15.7066 16.5083 17.5328C16.6355 17.6083 16.7426 17.7152 17.0272 17.9415C16.3493 18.644 15.6948 19.3213 15.0687 19.9688C10.6194 17.9776 9.50286 12.6781 12.8206 9.3149C15.3483 6.75318 17.9998 4.29361 20.7233 1.91419C23.8016 -0.776403 28.1991 -0.584667 31.0079 2.20808C33.7415 4.9254 33.6594 9.0273 30.7836 11.7823C28.6627 13.8144 26.5067 15.8104 24.3574 17.8173C24.3005 17.8692 24.1632 17.8456 24.051 17.8582V17.8566Z" fill="#BABABA"/>
<path d="M15.9175 13.1167C16.6591 12.3545 17.3152 11.6787 17.943 11.0343C22.3873 13.0617 23.4837 18.325 20.1643 21.7008C17.6433 24.2657 14.9918 26.7284 12.2667 29.1047C9.1933 31.7827 4.76574 31.5752 1.97696 28.7872C-0.744862 26.0652 -0.647774 21.9586 2.2247 19.2051C4.37739 17.1416 6.55183 15.0985 8.91376 12.8589C9.16485 14.99 9.87292 16.8398 7.64826 18.2904C6.40285 19.1029 5.41355 20.2754 4.35395 21.3252C2.63314 23.0288 2.65825 25.3721 4.37404 26.95C6.03291 28.476 8.50531 28.5106 10.2462 26.928C12.7672 24.6382 15.2479 22.309 17.6969 19.9516C19.7642 17.9604 19.3809 15.2069 16.8917 13.684C16.6356 13.5269 16.3728 13.3807 15.9192 13.1167H15.9175Z" fill="#BABABA"/>
</svg>
