<svg width="22" height="23" viewBox="0 0 22 23" fill="none" xmlns="http://www.w3.org/2000/svg">
<path d="M8.99991 12.3002C9.38642 12.8169 9.87953 13.2444 10.4458 13.5538C11.0121 13.8632 11.6383 14.0472 12.2819 14.0933C12.9255 14.1394 13.5715 14.0465 14.1761 13.821C14.7807 13.5954 15.3297 13.2425 15.7859 12.7862L18.4859 10.0862C19.3056 9.23745 19.7592 8.10074 19.7489 6.92086C19.7387 5.74097 19.2654 4.61232 18.4311 3.77798C17.5968 2.94364 16.4681 2.47038 15.2882 2.46013C14.1083 2.44988 12.9716 2.90345 12.1229 3.72316L10.5749 5.26216M12.5999 10.5002C12.2134 9.98345 11.7203 9.5559 11.154 9.24652C10.5877 8.93714 9.96155 8.75316 9.31793 8.70706C8.6743 8.66097 8.02828 8.75383 7.4237 8.97936C6.81912 9.20489 6.27011 9.5578 5.81391 10.0142L3.11391 12.7142C2.2942 13.5629 1.84063 14.6996 1.85088 15.8795C1.86113 17.0594 2.33439 18.188 3.16873 19.0223C4.00306 19.8567 5.13172 20.3299 6.31161 20.3402C7.49149 20.3505 8.6282 19.8969 9.47691 19.0772L11.0159 17.5382" stroke="#006838" stroke-width="1.8" stroke-linecap="round" stroke-linejoin="round"/>
</svg>
