<svg width="144" height="46" viewBox="0 0 144 46" fill="none" xmlns="http://www.w3.org/2000/svg">
<g clip-path="url(#clip0_2_17358)">
<path d="M31.2193 32.9351H33.6306C35.3072 32.9351 36.4101 33.4898 36.4101 34.9484C36.4101 36.4069 35.3072 37.0571 33.6306 37.0571H31.8129V40.5548H31.2179V32.9364L31.2193 32.9351ZM33.478 36.6073C34.9719 36.6073 35.8008 36.0716 35.8008 34.9484C35.8008 33.8252 34.9719 33.3849 33.478 33.3849H31.8143V36.6073H33.478ZM34.063 36.7449L36.5699 40.5534H35.885L33.498 36.899L34.063 36.7436V36.7449Z" fill="#006838"/>
<path d="M46.7214 32.9351H51.7181V33.3944H47.3121V36.2787H51.0204V36.7381H47.3121V40.0968H51.8451V40.5561H46.72V32.9378L46.7214 32.9351Z" fill="#006838"/>
<path d="M64.0162 33.392H61.0769V32.9326H67.5461V33.392H64.6069V40.5523H64.0162V33.392Z" fill="#006838"/>
<path d="M76.9773 37.7032V32.9351H77.5723V37.6418C77.5723 39.5979 78.5611 40.2072 79.6911 40.2072C80.8211 40.2072 81.8356 39.5993 81.8356 37.6418V32.9351H82.3978V37.7032C82.3978 40.0123 81.1065 40.6925 79.6911 40.6925C78.2757 40.6925 76.9773 40.0109 76.9773 37.7032Z" fill="#006838"/>
<path d="M92.7208 32.9351H95.1321C96.8086 32.9351 97.9116 33.4898 97.9116 34.9484C97.9116 36.4069 96.8086 37.0571 95.1321 37.0571H93.3143V40.5548H92.7194V32.9364L92.7208 32.9351ZM94.9794 36.6073C96.4733 36.6073 97.3023 36.0716 97.3023 34.9484C97.3023 33.8252 96.4733 33.3849 94.9794 33.3849H93.3158V36.6073H94.9794ZM95.5644 36.7449L98.0714 40.5534H97.3865L94.9994 36.899L95.5644 36.7436V36.7449Z" fill="#006838"/>
<path d="M107.775 32.9351H108.403L111.69 38.322L112.591 39.8269H112.616C112.596 39.0922 112.541 38.3547 112.541 37.6159V32.9351H113.098V40.5534H112.471L109.183 35.1665L108.283 33.6616H108.257C108.277 34.4031 108.333 35.0942 108.333 35.8303V40.5534H107.775V32.9351Z" fill="#006838"/>
<path d="M27.196 12.7452V16.0152C27.196 16.2456 27.3915 16.431 27.6312 16.431H37.4406C37.6803 16.431 37.8758 16.6177 37.8758 16.8467C37.8772 17.4301 37.8829 17.9958 37.8815 18.5506C32.3383 17.8541 26.9078 17.3129 21.8997 16.8958V8.3928C21.8997 8.16243 22.0951 7.97705 22.3348 7.97705H37.8643C38.1055 7.97705 38.2995 8.1638 38.2995 8.3928V11.911C38.2995 12.1413 38.104 12.3267 37.8643 12.3267H27.6298C27.3886 12.3267 27.1946 12.5134 27.1946 12.7424L27.196 12.7452Z" fill="#39B54A"/>
<path d="M18.3194 14.7128H13.6408C13.4967 14.7128 13.3598 14.6296 13.3184 14.4988C13.3184 14.4988 13.3184 14.4974 13.3184 14.496C12.5878 12.1229 10.5261 11.1469 8.06911 12.0288C7.34286 12.2906 6.89627 12.7676 6.81351 13.5514C6.7279 14.3611 6.98473 15.029 7.76663 15.3221C8.5314 15.6083 9.32186 15.8346 10.1095 16.0663C6.64372 15.8673 3.68449 15.7365 1.42584 15.6506C0.843698 13.1943 1.88385 10.3495 4.09827 9.02866C6.44824 7.62603 9.02508 7.45837 11.6733 7.75143C13.531 7.95726 15.2317 8.58292 16.5901 9.86696C17.8942 11.0992 18.5491 12.5945 18.6647 14.3597C18.6775 14.5506 18.5206 14.7128 18.3208 14.7128H18.3194Z" fill="#39B54A"/>
<path d="M79.7669 23.1909C79.5543 24.8307 78.7425 26.3901 77.5382 27.6318C75.9231 26.9421 74.1995 26.2919 72.386 25.6772C73.2421 25.2069 73.8599 24.4354 74.268 23.424C74.4734 22.9128 74.7288 22.6947 75.3309 22.7124C76.6493 22.752 77.9677 22.7329 79.3332 22.7288C79.5928 22.7288 79.7983 22.9455 79.7669 23.1909Z" fill="#39B54A"/>
<path d="M78.9463 15.5105C77.598 15.475 76.2482 15.4968 74.897 15.4996C74.7315 15.4996 74.5802 15.4096 74.5075 15.2678C74.4504 15.1574 74.4005 15.0552 74.3691 14.9489C73.8226 13.2136 72.6127 12.1968 70.7264 11.9896C68.6418 11.7606 66.7984 12.3031 65.7839 14.1419C64.0589 17.2702 64.0432 20.5062 65.6141 23.6509C63.5652 23.1056 61.4464 22.5986 59.2776 22.1229C58.6013 19.1581 58.9452 16.1797 60.3549 13.2504C63.5438 6.62441 72.0919 6.58897 76.1498 9.23475C78.1416 10.5324 79.2945 12.3535 79.7197 14.619C79.8438 15.2815 79.6783 15.5295 78.9463 15.5105Z" fill="#39B54A"/>
<path d="M58.9296 8.41477V11.9057C58.9296 12.136 58.7341 12.3241 58.4915 12.3241H52.1693V20.7127C50.3829 20.3896 48.5794 20.087 46.7688 19.8035V12.41H40.3823C40.1398 12.41 39.9429 12.2219 39.9429 11.9902V8.41204C39.9429 8.1844 40.1369 7.99902 40.3752 7.99902H58.4944C58.7355 7.99902 58.9296 8.18577 58.9296 8.41477Z" fill="#39B54A"/>
<path d="M135.884 6.92432C135.828 8.15383 135.774 9.37381 135.72 10.6088C135.405 10.4125 135.099 10.2217 134.788 10.0281C134.225 10.8528 133.655 11.672 133.082 12.4885H133.107L121.062 29.9389C120.955 30.0943 120.773 30.1883 120.578 30.1883C120.169 30.1883 119.752 30.1924 119.324 30.1938C118.896 30.1952 118.658 29.759 118.881 29.425C119.19 28.9588 119.474 28.5349 119.759 28.1137C121.098 26.144 122.416 24.1593 123.796 22.2156C124.175 21.6812 124.153 21.3173 123.799 20.7857C122.192 18.3771 120.636 15.9371 119.065 13.5067L119.059 13.4985C118.796 13.0896 119.103 12.5635 119.605 12.5635C121.222 12.5594 122.759 12.5526 124.294 12.5907C124.526 12.5975 124.809 12.9342 124.963 13.1769C125.838 14.5522 126.681 15.9453 127.624 17.4774C128.631 15.9698 129.456 14.6831 130.478 13.3213C130.479 13.3186 130.481 13.3173 130.483 13.3145C131.435 11.9187 132.39 10.5229 133.344 9.12436C133.033 8.9308 132.729 8.74269 132.414 8.54504C133.577 8.00253 134.724 7.46683 135.884 6.92432Z" fill="#39B54A"/>
<path d="M11.3109 5.38916H7.87939V8.66741H11.3109V5.38916Z" fill="#39B54A"/>
<path d="M38.9614 26.2766C38.776 27.5074 38.6019 28.6743 38.425 29.8506C38.3936 30.0578 38.2081 30.2105 37.9898 30.2105H22.339C22.0964 30.2105 21.8995 30.0224 21.8995 29.7906V16.8984C26.9077 17.3155 32.3381 17.8567 37.8813 18.5532C37.8799 19.1653 37.8699 19.765 37.8357 20.3621C37.8257 20.5406 37.3049 20.831 37.0181 20.8337C34.1017 20.8691 31.1853 20.8542 28.2674 20.8528H27.6154C27.3728 20.8528 27.1759 21.0409 27.1759 21.2726V25.3769C27.1759 25.6086 27.3728 25.7968 27.6154 25.7968H38.5263C38.7931 25.7968 38.9985 26.0244 38.9614 26.2766Z" fill="#006838"/>
<path d="M19.244 23.7505C19.147 26.4535 17.8086 28.49 15.189 29.5587C11.8916 30.9027 8.48291 30.9518 5.15557 29.6609C2.28338 28.5473 0.875108 26.3718 0.454197 23.5311C0.417099 23.2816 0.621134 23.0581 0.883669 23.0581H5.43237C5.62784 23.0581 5.79764 23.1835 5.85043 23.362C6.17432 24.4757 6.68512 25.4898 7.94357 25.9424C9.33187 26.4399 10.7501 26.4822 12.1769 26.0664C13.0873 25.802 13.628 25.2281 13.7293 24.3326C13.8378 23.3866 13.5353 22.5319 12.5993 22.1339C11.4721 21.6554 10.265 21.3528 9.10072 20.9534C7.50839 20.4068 5.85471 19.972 4.34941 19.2564C2.71571 18.478 1.774 17.1354 1.42443 15.6523C3.67167 15.7382 6.61235 15.8677 10.0553 16.0654C10.0909 16.0667 10.1252 16.0735 10.1594 16.0831C10.5689 16.203 10.977 16.3257 11.3822 16.4579C12.7976 16.9255 14.2501 17.329 15.597 17.9396C18.1254 19.086 19.3396 21.0952 19.244 23.7505Z" fill="#006838"/>
<path d="M77.5379 27.6333C76.532 28.6733 75.2507 29.4885 73.8153 29.9424C71.3227 30.7316 68.7901 30.7548 66.2774 30.0514C63.4381 29.2567 61.3763 27.527 60.2277 24.9507C59.8082 24.0115 59.4915 23.0696 59.2775 22.125C61.4462 22.6007 63.5651 23.1078 65.614 23.653C65.6582 23.743 65.7053 23.8316 65.7524 23.9216C66.6869 25.6868 68.4277 26.3165 70.458 26.2007C71.2014 26.157 71.8406 25.9798 72.3842 25.6786H72.3857C74.1991 26.2934 75.9227 26.9436 77.5379 27.6333Z" fill="#006838"/>
<path d="M52.169 20.7134V29.7725C52.169 30.0029 51.9736 30.1897 51.7324 30.1897H47.2037C46.9626 30.1897 46.7671 30.0029 46.7671 29.7725V19.8042C48.5777 20.0877 50.3812 20.3903 52.1676 20.7134H52.169Z" fill="#006838"/>
<path d="M111.907 18.851C112.159 18.8579 112.369 18.6629 112.369 18.4203C112.365 17.1131 111.937 16.561 110.924 16.3825C108.982 16.039 108.214 16.422 107.626 18.145C107.567 18.3222 107.394 18.4435 107.198 18.4435H102.905C102.664 18.4435 102.461 18.2622 102.456 18.0318C102.387 15.5455 104.159 13.3305 106.872 12.5849C108.895 12.0287 110.955 12.0083 112.993 12.4636C116.102 13.1574 117.64 14.9771 117.77 18.0904C117.835 19.6757 117.795 21.2651 117.797 22.8531C117.8 25.1199 117.797 27.3854 117.797 29.7545C117.797 29.9917 117.597 30.1852 117.349 30.1852C116.072 30.1893 114.654 30.2057 113.237 30.162C112.987 30.1539 112.745 29.9562 112.438 29.7586C112.304 29.6727 112.128 29.6672 111.99 29.7463C110.28 30.71 108.097 30.8095 105.877 30.2806C103.406 29.6918 101.815 27.7671 101.614 25.3367C101.41 22.8817 102.541 20.7839 104.897 19.8706C106.314 19.3213 107.896 19.1114 109.424 18.8824C110.222 18.7638 111.051 18.8279 111.906 18.8497L111.907 18.851ZM112.338 22.8136C112.321 22.5696 112.088 22.3924 111.834 22.421C110.72 22.5478 109.597 22.6377 108.505 22.8667C107.458 23.0862 106.994 23.8809 107.109 24.8555C107.218 25.7933 107.831 26.3413 108.898 26.4626C111.178 26.7189 112.509 25.3585 112.338 22.8136Z" fill="#006838"/>
<path d="M90.5262 11.5671H85.4338C84.8774 11.5671 84.4265 11.1364 84.4265 10.6048V7.82404C84.4265 7.30333 84.8631 6.87123 85.4082 6.86987C85.411 6.86987 85.4153 6.86987 85.4182 6.86987C91.3466 6.86714 97.2764 6.89031 103.205 6.84533C104.171 6.83852 104.363 7.12886 104.355 7.99034C104.346 8.90906 104.355 9.82507 104.349 10.752C104.345 11.3681 104.144 11.5903 103.485 11.5794C101.745 11.5535 100.005 11.563 98.1925 11.5671C97.636 11.5671 97.1866 11.9992 97.1866 12.5295V29.1647C97.1866 29.6963 96.7357 30.1271 96.1792 30.1271H92.5437C91.9872 30.1271 91.5364 29.6963 91.5364 29.1647V12.5295C91.5364 11.9978 91.0855 11.5671 90.529 11.5671H90.5262Z" fill="#006838"/>
<path d="M143.55 0.799805C143.474 2.14246 143.399 3.47148 143.323 4.81822C142.986 4.6083 142.658 4.40384 142.326 4.19665C140.914 6.26447 138.65 9.49229 136.775 12.1899C134.809 15.2596 132.841 17.8631 130.833 21.0268C132.747 23.9289 134.665 26.8336 136.682 29.8924C136.767 30.0192 136.67 30.1841 136.514 30.1855C134.549 30.1869 132.713 30.2032 130.88 30.1569C130.656 30.1501 130.389 29.7752 130.235 29.5217C129.353 28.0727 128.498 26.6087 127.558 25.0207C126.628 26.5801 125.737 28.0073 124.921 29.474C124.612 30.0301 124.246 30.2305 123.591 30.2141C123.148 30.2032 122.877 30.1978 122.543 30.195C122.293 30.1923 122.146 29.9265 122.286 29.7289L134.37 12.6179C134.37 12.6179 134.374 12.6111 134.377 12.6083C136.356 9.71038 139.124 5.65516 140.779 3.23157C140.446 3.02302 140.123 2.82128 139.784 2.61136C141.046 2.00478 142.29 1.40638 143.55 0.801168V0.799805Z" fill="#006838"/>
<path d="M11.5647 29.6548H8.13318V32.933H11.5647V29.6548Z" fill="#006838"/>
</g>
<defs>
<clipPath id="clip0_2_17358">
<rect width="143.1" height="45" fill="white" transform="translate(0.449951 0.799805)"/>
</clipPath>
</defs>
</svg>
