<svg width="180" height="53" viewBox="0 0 180 53" fill="none" xmlns="http://www.w3.org/2000/svg">
<g clip-path="url(#clip0_1_109)">
<path d="M38.7035 42.129H41.7366C43.8454 42.129 45.2327 42.8564 45.2327 44.7687C45.2327 46.681 43.8454 47.5334 41.7366 47.5334H39.4501V52.1193H38.7017V42.1308L38.7035 42.129ZM41.5445 46.9437C43.4236 46.9437 44.4664 46.2413 44.4664 44.7687C44.4664 43.2961 43.4236 42.7188 41.5445 42.7188H39.4519V46.9437H41.5445ZM42.2804 47.1242L45.4337 52.1175H44.5723L41.5697 47.3261L42.2804 47.1224V47.1242Z" fill="white"/>
<path d="M58.2035 42.1292H64.4886V42.7314H58.9465V46.5131H63.611V47.1154H58.9465V51.519H64.6484V52.1212H58.2017V42.1327L58.2035 42.1292Z" fill="white"/>
<path d="M79.9574 42.7296H76.2603V42.1273H84.3976V42.7296H80.7004V52.1176H79.9574V42.7296Z" fill="white"/>
<path d="M96.2607 48.3807V42.1292H97.0092V48.3003C97.0092 50.8649 98.2529 51.6637 99.6743 51.6637C101.096 51.6637 102.372 50.8666 102.372 48.3003V42.1292H103.079V48.3807C103.079 51.4082 101.455 52.3 99.6743 52.3C97.894 52.3 96.2607 51.4064 96.2607 48.3807Z" fill="white"/>
<path d="M116.064 42.1292H119.097C121.206 42.1292 122.593 42.8565 122.593 44.7688C122.593 46.6811 121.206 47.5336 119.097 47.5336H116.81V52.1195H116.062V42.1309L116.064 42.1292ZM118.905 46.9438C120.784 46.9438 121.827 46.2414 121.827 44.7688C121.827 43.2962 120.784 42.7189 118.905 42.7189H116.812V46.9438H118.905ZM119.641 47.1243L122.794 52.1177H121.933L118.93 47.3263L119.641 47.1225V47.1243Z" fill="white"/>
<path d="M135 42.1292H135.79L139.925 49.1921L141.058 51.1651H141.09C141.065 50.2018 140.995 49.235 140.995 48.2663V42.1292H141.697V52.1177H140.907L136.772 45.0548L135.639 43.0817H135.607C135.632 44.0539 135.702 44.96 135.702 45.9251V52.1177H135V42.1292Z" fill="white"/>
<path d="M33.6425 15.6645V19.9519C33.6425 20.254 33.8884 20.497 34.1899 20.497H46.5288C46.8303 20.497 47.0762 20.7419 47.0762 21.0421C47.078 21.807 47.0852 22.5487 47.0834 23.2761C40.1108 22.3628 33.28 21.6533 26.9805 21.1064V9.95805C26.9805 9.65602 27.2263 9.41296 27.5279 9.41296H47.0618C47.3651 9.41296 47.6092 9.65781 47.6092 9.95805V14.5707C47.6092 14.8728 47.3633 15.1158 47.0618 15.1158H34.1882C33.8848 15.1158 33.6408 15.3607 33.6408 15.6609L33.6425 15.6645Z" fill="white"/>
<path d="M22.4775 18.2435H16.5926C16.4113 18.2435 16.239 18.1345 16.187 17.9629C16.187 17.9629 16.187 17.9611 16.187 17.9593C15.2681 14.8479 12.6747 13.5682 9.58411 14.7246C8.67059 15.0677 8.10884 15.6932 8.00474 16.7208C7.89706 17.7824 8.22011 18.6581 9.20363 19.0424C10.1656 19.4177 11.1599 19.7143 12.1506 20.0182C7.79117 19.7572 4.06887 19.5857 1.2278 19.4731C0.495543 16.2526 1.80391 12.5228 4.58935 10.791C7.54529 8.95198 10.7866 8.73215 14.1176 9.1164C16.4544 9.38626 18.5937 10.2066 20.3023 11.8901C21.9427 13.5057 22.7665 15.4662 22.9119 17.7806C22.928 18.0308 22.7306 18.2435 22.4793 18.2435H22.4775Z" fill="white"/>
<path d="M99.77 29.3579C99.5026 31.5078 98.4814 33.5524 96.9667 35.1805C94.935 34.2762 92.767 33.4237 90.4858 32.6177C91.5627 32.0011 92.3398 30.9895 92.8531 29.6635C93.1115 28.9933 93.4328 28.7073 94.1902 28.7306C95.8485 28.7824 97.5069 28.7574 99.2244 28.752C99.5511 28.752 99.8095 29.0362 99.77 29.3579Z" fill="white"/>
<path d="M98.7381 19.289C97.042 19.2425 95.3442 19.2711 93.6446 19.2747C93.4364 19.2747 93.2462 19.1567 93.1546 18.9708C93.0828 18.8261 93.02 18.692 92.9805 18.5526C92.2932 16.2776 90.7712 14.9443 88.3986 14.6727C85.7765 14.3724 83.4576 15.0837 82.1816 17.4946C80.0117 21.5962 79.992 25.8389 81.968 29.962C79.3908 29.2471 76.7256 28.5823 73.9976 27.9585C73.1469 24.0714 73.5794 20.1665 75.3526 16.3258C79.3638 7.63836 90.1161 7.59189 95.2204 11.0608C97.7258 12.7622 99.176 15.1499 99.7108 18.1201C99.867 18.9887 99.6588 19.314 98.7381 19.289Z" fill="white"/>
<path d="M73.5594 9.98491V14.5619C73.5594 14.8639 73.3135 15.1105 73.0084 15.1105H65.0559V26.1088C62.8089 25.6852 60.5403 25.2885 58.2628 24.9168V15.2231H50.2295C49.9244 15.2231 49.6768 14.9765 49.6768 14.6727V9.98133C49.6768 9.68287 49.9208 9.43982 50.2206 9.43982H73.012C73.3153 9.43982 73.5594 9.68466 73.5594 9.98491Z" fill="white"/>
<path d="M170.357 8.03333C170.287 9.64536 170.219 11.2449 170.151 12.8641C169.754 12.6067 169.37 12.3565 168.979 12.1027C168.27 13.184 167.554 14.2581 166.832 15.3286H166.864L151.713 38.208C151.579 38.4117 151.349 38.535 151.105 38.535C150.59 38.535 150.066 38.5404 149.527 38.5422C148.989 38.544 148.689 37.9721 148.969 37.5342C149.359 36.923 149.716 36.3672 150.075 35.815C151.758 33.2325 153.416 30.6304 155.152 28.0819C155.629 27.3813 155.601 26.9041 155.156 26.2071C153.135 23.0492 151.177 19.8501 149.201 16.6636L149.193 16.6529C148.863 16.1167 149.249 15.4269 149.881 15.4269C151.914 15.4215 153.847 15.4126 155.778 15.4626C156.071 15.4715 156.426 15.913 156.62 16.2311C157.72 18.0344 158.781 19.8608 159.967 21.8696C161.234 19.893 162.272 18.2059 163.557 16.4205C163.559 16.417 163.56 16.4152 163.564 16.4116C164.761 14.5815 165.962 12.7515 167.162 10.9178C166.771 10.664 166.389 10.4174 165.992 10.1583C167.455 9.44698 168.898 8.74462 170.357 8.03333Z" fill="white"/>
<path d="M13.6616 6.01917H9.34521V10.3173H13.6616V6.01917Z" fill="white"/>
<path d="M48.442 33.4023C48.2087 35.0161 47.9897 36.546 47.7672 38.0883C47.7277 38.36 47.4944 38.5601 47.2198 38.5601H27.5332C27.2281 38.5601 26.9805 38.3135 26.9805 38.0097V21.1066C33.28 21.6534 40.1108 22.363 47.0834 23.2762C47.0816 24.0786 47.069 24.865 47.0259 25.6478C47.0134 25.8819 46.3583 26.2626 45.9976 26.2661C42.3291 26.3126 38.6606 26.2929 34.9904 26.2912H34.1702C33.8651 26.2912 33.6174 26.5378 33.6174 26.8416V32.2228C33.6174 32.5266 33.8651 32.7732 34.1702 32.7732H47.8946C48.2302 32.7732 48.4887 33.0717 48.442 33.4023Z" fill="white"/>
<path d="M23.6404 30.0906C23.5184 33.6346 21.8349 36.3046 18.5398 37.7058C14.3921 39.4679 10.1045 39.5323 5.91917 37.8398C2.30635 36.3797 0.534942 33.5274 0.00549364 29.8029C-0.0411696 29.4758 0.215478 29.1827 0.545711 29.1827H6.26735C6.51323 29.1827 6.7268 29.3472 6.79321 29.5813C7.20061 31.0414 7.84313 32.3711 9.42609 32.9644C11.1724 33.6167 12.9563 33.6721 14.7511 33.127C15.8961 32.7803 16.5763 32.0279 16.7038 30.8538C16.8402 29.6135 16.4597 28.4929 15.2823 27.971C13.8645 27.3437 12.3461 26.947 10.8816 26.4233C8.8787 25.7067 6.79859 25.1366 4.90514 24.1983C2.85016 23.1778 1.66563 21.4175 1.22592 19.473C4.05264 19.5856 7.7516 19.7554 12.0823 20.0145C12.1272 20.0163 12.1703 20.0253 12.2133 20.0378C12.7284 20.195 13.2417 20.3559 13.7514 20.5292C15.5318 21.1422 17.3589 21.6712 19.0531 22.4719C22.2334 23.9749 23.7607 26.6092 23.6404 30.0906Z" fill="white"/>
<path d="M96.9662 35.1806C95.7009 36.5442 94.0892 37.6129 92.2837 38.2081C89.1483 39.2428 85.9626 39.2732 82.8021 38.351C79.2305 37.3091 76.6371 35.0412 75.1924 31.6634C74.6647 30.4321 74.2663 29.1971 73.9971 27.9586C76.7251 28.5823 79.3903 29.2472 81.9675 29.962C82.0232 30.08 82.0824 30.1962 82.1416 30.3141C83.3172 32.6285 85.5068 33.4542 88.0607 33.3023C88.9957 33.2451 89.7998 33.0127 90.4836 32.6178H90.4854C92.7665 33.4238 94.9345 34.2763 96.9662 35.1806Z" fill="white"/>
<path d="M65.0561 26.1088V37.9864C65.0561 38.2884 64.8102 38.5332 64.5069 38.5332H58.8104C58.5071 38.5332 58.2612 38.2884 58.2612 37.9864V24.9167C60.5388 25.2885 62.8073 25.6852 65.0543 26.1088H65.0561Z" fill="white"/>
<path d="M140.198 23.6676C140.516 23.6765 140.779 23.421 140.779 23.1028C140.774 21.3889 140.236 20.6651 138.961 20.431C136.519 19.9806 135.553 20.4828 134.814 22.7418C134.738 22.9742 134.521 23.1332 134.275 23.1332H128.875C128.572 23.1332 128.317 22.8955 128.31 22.5935C128.223 19.3337 130.452 16.4295 133.864 15.4519C136.409 14.7228 139.001 14.696 141.564 15.2929C145.474 16.2026 147.409 18.5884 147.573 22.6703C147.655 24.7488 147.605 26.8327 147.607 28.9147C147.61 31.8868 147.607 34.8571 147.607 37.9632C147.607 38.2742 147.355 38.5279 147.043 38.5279C145.437 38.5333 143.653 38.5547 141.871 38.4976C141.557 38.4868 141.251 38.2277 140.866 37.9686C140.697 37.856 140.476 37.8488 140.302 37.9525C138.152 39.216 135.406 39.3465 132.613 38.653C129.505 37.881 127.504 35.3575 127.251 32.171C126.994 28.9523 128.417 26.2018 131.38 25.0044C133.163 24.2842 135.153 24.0089 137.075 23.7087C138.078 23.5532 139.121 23.6372 140.196 23.6658L140.198 23.6676ZM140.74 28.8629C140.718 28.543 140.426 28.3107 140.106 28.3482C138.705 28.5144 137.292 28.6324 135.919 28.9326C134.602 29.2203 134.019 30.2623 134.162 31.5401C134.3 32.7697 135.07 33.4881 136.413 33.6472C139.281 33.9832 140.955 32.1996 140.74 28.8629Z" fill="white"/>
<path d="M113.304 14.117H106.898C106.198 14.117 105.631 13.5522 105.631 12.8552V9.20937C105.631 8.52667 106.181 7.96013 106.866 7.95835C106.87 7.95835 106.875 7.95835 106.879 7.95835C114.336 7.95477 121.795 7.98516 129.252 7.92618C130.467 7.91724 130.709 8.29791 130.698 9.42741C130.688 10.632 130.699 11.8329 130.691 13.0482C130.686 13.856 130.433 14.1473 129.604 14.133C127.416 14.0991 125.226 14.1116 122.947 14.117C122.247 14.117 121.682 14.6835 121.682 15.3787V37.1894C121.682 37.8864 121.115 38.4511 120.415 38.4511H115.842C115.142 38.4511 114.575 37.8864 114.575 37.1894V15.3787C114.575 14.6817 114.007 14.117 113.307 14.117H113.304Z" fill="white"/>
<path d="M180 0C179.905 1.76037 179.81 3.50286 179.715 5.26859C179.291 4.99337 178.879 4.72529 178.46 4.45364C176.685 7.16478 173.837 11.3968 171.479 14.9336C169.006 18.9583 166.531 22.3719 164.004 26.5199C166.412 30.3248 168.824 34.1332 171.362 38.1437C171.468 38.3099 171.346 38.5261 171.15 38.5279C168.679 38.5297 166.369 38.5511 164.063 38.4904C163.781 38.4814 163.446 37.99 163.252 37.6576C162.143 35.7578 161.067 33.8384 159.885 31.7563C158.715 33.8008 157.595 35.672 156.568 37.595C156.179 38.3242 155.719 38.5869 154.895 38.5654C154.337 38.5511 153.996 38.544 153.576 38.5404C153.262 38.5368 153.077 38.1883 153.253 37.9292L168.453 15.4948C168.453 15.4948 168.458 15.4859 168.462 15.4823C170.951 11.6828 174.433 6.36592 176.515 3.18832C176.097 2.91488 175.689 2.65038 175.264 2.37515C176.85 1.57986 178.415 0.795293 180 0.00178717V0Z" fill="white"/>
<path d="M13.9809 37.8309H9.66455V42.1291H13.9809V37.8309Z" fill="white"/>
</g>
<defs>
<clipPath id="clip0_1_109">
<rect width="180" height="53" fill="white"/>
</clipPath>
</defs>
</svg>
