<svg width="160" height="50" viewBox="0 0 160 50" fill="none" xmlns="http://www.w3.org/2000/svg">
<g clip-path="url(#clip0_0_23441)">
<path d="M34.6891 35.7056H37.3683C39.2311 35.7056 40.4566 36.322 40.4566 37.9426C40.4566 39.5631 39.2311 40.2856 37.3683 40.2856H35.3486V44.1719H34.6875V35.7071L34.6891 35.7056ZM37.1987 39.7858C38.8586 39.7858 39.7797 39.1906 39.7797 37.9426C39.7797 36.6946 38.8586 36.2054 37.1987 36.2054H35.3502V39.7858H37.1987ZM37.8487 39.9387L40.6342 44.1704H39.8732L37.2209 40.1099L37.8487 39.9372V39.9387Z" fill="#006838"/>
<path d="M51.9137 35.7056H57.4656V36.216H52.57V39.4208H56.6904V39.9312H52.57V43.663H57.6067V44.1734H51.9121V35.7086L51.9137 35.7056Z" fill="#006838"/>
<path d="M71.1291 36.2135H67.8633V35.7031H75.0513V36.2135H71.7854V44.1695H71.1291V36.2135Z" fill="#006838"/>
<path d="M85.5312 41.0035V35.7056H86.1923V40.9353C86.1923 43.1087 87.291 43.7857 88.5466 43.7857C89.8022 43.7857 90.9294 43.1102 90.9294 40.9353V35.7056H91.554V41.0035C91.554 43.5691 90.1193 44.3249 88.5466 44.3249C86.9739 44.3249 85.5312 43.5676 85.5312 41.0035Z" fill="#006838"/>
<path d="M103.025 35.7056H105.704C107.567 35.7056 108.793 36.322 108.793 37.9426C108.793 39.5631 107.567 40.2856 105.704 40.2856H103.685V44.1719H103.023V35.7071L103.025 35.7056ZM105.535 39.7858C107.195 39.7858 108.116 39.1906 108.116 37.9426C108.116 36.6946 107.195 36.2054 105.535 36.2054H103.686V39.7858H105.535ZM106.185 39.9387L108.97 44.1704H108.209L105.557 40.1099L106.185 39.9372V39.9387Z" fill="#006838"/>
<path d="M119.752 35.7056H120.45L124.102 41.6911L125.103 43.3632H125.131C125.109 42.5468 125.047 41.7274 125.047 40.9065V35.7056H125.667V44.1704H124.969L121.317 38.1849L120.316 36.5128H120.288C120.31 37.3367 120.372 38.1046 120.372 38.9225V44.1704H119.752V35.7056Z" fill="#006838"/>
<path d="M30.2188 13.273V16.9064C30.2188 17.1624 30.436 17.3684 30.7024 17.3684H41.6017C41.868 17.3684 42.0852 17.5759 42.0852 17.8303C42.0868 18.4785 42.0931 19.1071 42.0915 19.7235C35.9324 18.9496 29.8986 18.3483 24.334 17.8848V8.43704C24.334 8.18108 24.5512 7.9751 24.8175 7.9751H42.0725C42.3404 7.9751 42.5561 8.18259 42.5561 8.43704V12.3461C42.5561 12.6021 42.3389 12.808 42.0725 12.808H30.7008C30.4328 12.808 30.2172 13.0155 30.2172 13.27L30.2188 13.273Z" fill="#39B54A"/>
<path d="M20.3559 15.4592H15.1575C14.9974 15.4592 14.8452 15.3669 14.7992 15.2215C14.7992 15.2215 14.7992 15.2199 14.7992 15.2184C13.9875 12.5816 11.6967 11.4972 8.96668 12.4771C8.15974 12.7679 7.66352 13.298 7.57157 14.1688C7.47645 15.0685 7.76181 15.8106 8.63059 16.1362C9.48034 16.4543 10.3586 16.7057 11.2337 16.9632C7.38291 16.7421 4.09489 16.5967 1.58527 16.5013C0.938446 13.772 2.09417 10.6112 4.55464 9.14355C7.16572 7.58507 10.0289 7.39878 12.9713 7.72441C15.0354 7.95311 16.9252 8.64829 18.4344 10.075C19.8834 11.4442 20.6111 13.1056 20.7395 15.067C20.7538 15.279 20.5794 15.4592 20.3575 15.4592H20.3559Z" fill="#39B54A"/>
<path d="M88.6307 24.8794C88.3945 26.7014 87.4924 28.4341 86.1544 29.8138C84.3598 29.0475 82.4447 28.325 80.4297 27.6419C81.3809 27.1194 82.0674 26.2622 82.5208 25.1384C82.7491 24.5704 83.0328 24.3281 83.7019 24.3478C85.1667 24.3917 86.6316 24.3705 88.1488 24.366C88.4373 24.366 88.6656 24.6068 88.6307 24.8794Z" fill="#39B54A"/>
<path d="M87.7201 16.3456C86.2219 16.3062 84.7222 16.3305 83.2208 16.3335C83.0369 16.3335 82.8689 16.2335 82.788 16.076C82.7246 15.9533 82.6691 15.8397 82.6342 15.7216C82.0271 13.7936 80.6827 12.6637 78.5868 12.4335C76.2706 12.1791 74.2223 12.7819 73.0952 14.825C71.1785 18.3009 71.161 21.8964 72.9065 25.3905C70.6299 24.7847 68.2757 24.2213 65.8659 23.6927C65.1145 20.3986 65.4966 17.0892 67.0629 13.8345C70.6062 6.47222 80.104 6.43284 84.6128 9.37259C86.8259 10.8144 88.1069 12.8379 88.5793 15.3551C88.7172 16.0912 88.5333 16.3668 87.7201 16.3456Z" fill="#39B54A"/>
<path d="M65.4791 8.46145V12.3402C65.4791 12.5962 65.2619 12.8052 64.9924 12.8052H57.9677V22.1258C55.9829 21.7668 53.979 21.4306 51.9672 21.1156V12.9006H44.8711C44.6016 12.9006 44.3828 12.6916 44.3828 12.4341V8.45842C44.3828 8.20549 44.5984 7.99951 44.8632 7.99951H64.9956C65.2635 7.99951 65.4791 8.20701 65.4791 8.46145Z" fill="#39B54A"/>
<path d="M150.983 6.80566C150.921 8.17179 150.861 9.52732 150.801 10.8995C150.45 10.6814 150.111 10.4694 149.766 10.2543C149.139 11.1706 148.507 12.0809 147.869 12.9881H147.898L134.514 32.3774C134.396 32.5501 134.193 32.6546 133.977 32.6546C133.522 32.6546 133.059 32.6591 132.583 32.6606C132.108 32.6621 131.843 32.1775 132.09 31.8064C132.434 31.2884 132.75 30.8174 133.067 30.3494C134.554 28.1609 136.019 25.9557 137.552 23.7959C137.974 23.2022 137.948 22.7978 137.555 22.2072C135.77 19.531 134.04 16.8199 132.295 14.1194L132.289 14.1104C131.997 13.656 132.338 13.0714 132.896 13.0714C134.692 13.0668 136.399 13.0593 138.105 13.1017C138.364 13.1092 138.678 13.4833 138.849 13.7529C139.821 15.2811 140.758 16.829 141.806 18.5313C142.925 16.8562 143.841 15.4265 144.976 13.9135C144.978 13.9104 144.979 13.9089 144.983 13.9059C146.04 12.355 147.101 10.8041 148.161 9.25016C147.816 9.03509 147.478 8.82608 147.128 8.60647C148.42 8.00368 149.694 7.40846 150.983 6.80566Z" fill="#39B54A"/>
<path d="M12.5686 5.09961H8.75586V8.74211H12.5686V5.09961Z" fill="#39B54A"/>
<path d="M43.2897 28.3073C43.0836 29.675 42.8902 30.9714 42.6936 32.2785C42.6587 32.5087 42.4526 32.6783 42.2101 32.6783H24.8203C24.5508 32.6783 24.332 32.4693 24.332 32.2119V17.8872C29.8966 18.3507 35.9305 18.9519 42.0896 19.7259C42.088 20.4059 42.0769 21.0723 42.0389 21.7357C42.0278 21.9341 41.4491 22.2567 41.1305 22.2597C37.89 22.2991 34.6495 22.2824 31.4075 22.2809H30.683C30.4135 22.2809 30.1947 22.4899 30.1947 22.7474V27.3077C30.1947 27.5652 30.4135 27.7742 30.683 27.7742H42.8062C43.1026 27.7742 43.3309 28.0272 43.2897 28.3073Z" fill="#006838"/>
<path d="M21.3824 25.5004C21.2746 28.5038 19.7875 30.7665 16.8768 31.9539C13.2131 33.4473 9.42564 33.5018 5.7286 32.0675C2.53728 30.8301 0.972532 28.4129 0.504853 25.2566C0.463633 24.9794 0.690339 24.731 0.982045 24.731H6.03616C6.25335 24.731 6.44201 24.8704 6.50067 25.0688C6.86054 26.3062 7.4281 27.433 8.82638 27.9358C10.3689 28.4886 11.9448 28.5356 13.5301 28.0736C14.5416 27.7798 15.1424 27.1422 15.255 26.1471C15.3755 25.096 15.0394 24.1464 13.9994 23.7041C12.747 23.1725 11.4058 22.8363 10.1121 22.3925C8.34285 21.7852 6.50542 21.3021 4.83287 20.5069C3.01764 19.6421 1.97131 18.1503 1.58289 16.5024C4.07983 16.5979 7.34724 16.7417 11.1727 16.9614C11.2123 16.9629 11.2504 16.9704 11.2884 16.981C11.7434 17.1143 12.1968 17.2506 12.6471 17.3975C14.2198 17.917 15.8337 18.3653 17.3302 19.0439C20.1395 20.3176 21.4886 22.5501 21.3824 25.5004Z" fill="#006838"/>
<path d="M86.1527 29.8151C85.035 30.9707 83.6113 31.8764 82.0165 32.3808C79.2469 33.2577 76.4328 33.2835 73.641 32.502C70.4862 31.619 68.1953 29.697 66.9191 26.8345C66.453 25.791 66.1011 24.7444 65.8633 23.6948C68.273 24.2234 70.6273 24.7868 72.9038 25.3926C72.953 25.4926 73.0053 25.591 73.0576 25.691C74.096 27.6524 76.0302 28.3521 78.2861 28.2233C79.1121 28.1749 79.8223 27.978 80.4264 27.6433H80.4279C82.4429 28.3263 84.358 29.0488 86.1527 29.8151Z" fill="#006838"/>
<path d="M57.967 22.1264V32.1922C57.967 32.4481 57.7498 32.6556 57.4819 32.6556H52.45C52.182 32.6556 51.9648 32.4481 51.9648 32.1922V21.1162C53.9767 21.4312 55.9805 21.7675 57.9654 22.1264H57.967Z" fill="#006838"/>
<path d="M124.342 20.0573C124.622 20.0649 124.855 19.8483 124.855 19.5787C124.851 18.1263 124.375 17.5129 123.249 17.3144C121.092 16.9328 120.239 17.3584 119.586 19.2728C119.519 19.4697 119.327 19.6045 119.11 19.6045H114.34C114.072 19.6045 113.847 19.403 113.84 19.1471C113.764 16.3845 115.733 13.9234 118.747 13.0949C120.995 12.477 123.284 12.4542 125.548 12.9601C129.003 13.731 130.712 15.7529 130.856 19.2122C130.929 20.9736 130.884 22.7396 130.886 24.504C130.889 27.0227 130.886 29.5399 130.886 32.1722C130.886 32.4358 130.664 32.6508 130.388 32.6508C128.969 32.6554 127.393 32.6736 125.819 32.6251C125.542 32.616 125.272 32.3964 124.931 32.1768C124.782 32.0814 124.587 32.0753 124.434 32.1631C122.534 33.2339 120.109 33.3445 117.642 32.7569C114.896 32.1026 113.128 29.964 112.905 27.2636C112.678 24.5358 113.935 22.2049 116.553 21.1902C118.127 20.5798 119.885 20.3466 121.583 20.0921C122.469 19.9604 123.39 20.0316 124.34 20.0558L124.342 20.0573ZM124.82 24.4601C124.801 24.189 124.543 23.9921 124.261 24.0239C123.023 24.1648 121.775 24.2647 120.562 24.5192C119.399 24.763 118.883 25.646 119.01 26.7289C119.132 27.7709 119.812 28.3798 120.998 28.5146C123.532 28.7993 125.011 27.2878 124.82 24.4601Z" fill="#006838"/>
<path d="M100.586 11.9638H94.9279C94.3096 11.9638 93.8086 11.4852 93.8086 10.8946V7.80487C93.8086 7.22631 94.2937 6.74619 94.8993 6.74468C94.9025 6.74468 94.9072 6.74468 94.9104 6.74468C101.498 6.74165 108.086 6.7674 114.673 6.71741C115.747 6.70984 115.961 7.03244 115.951 7.98964C115.942 9.01045 115.951 10.0282 115.945 11.0581C115.94 11.7427 115.717 11.9896 114.984 11.9775C113.052 11.9487 111.117 11.9593 109.104 11.9638C108.486 11.9638 107.986 12.4439 107.986 13.0331V31.5167C107.986 32.1074 107.485 32.586 106.867 32.586H102.828C102.209 32.586 101.708 32.1074 101.708 31.5167V13.0331C101.708 12.4424 101.207 11.9638 100.589 11.9638H100.586Z" fill="#006838"/>
<path d="M159.499 0C159.415 1.49184 159.331 2.96853 159.247 4.46491C158.873 4.23167 158.508 4.00448 158.139 3.77427C156.571 6.07185 154.055 9.65832 151.972 12.6556C149.787 16.0664 147.601 18.9592 145.369 22.4745C147.497 25.699 149.627 28.9265 151.869 32.3251C151.962 32.466 151.855 32.6493 151.682 32.6508C149.499 32.6523 147.458 32.6705 145.421 32.619C145.172 32.6114 144.876 32.1949 144.705 31.9132C143.725 30.3032 142.775 28.6766 141.731 26.9121C140.697 28.6448 139.708 30.2305 138.801 31.8602C138.457 32.4781 138.051 32.7008 137.323 32.6826C136.83 32.6705 136.529 32.6644 136.158 32.6614C135.881 32.6583 135.717 32.363 135.873 32.1434L149.299 13.1312C149.299 13.1312 149.304 13.1236 149.307 13.1206C151.506 9.90065 154.581 5.39484 156.42 2.70197C156.051 2.47024 155.691 2.24608 155.315 2.01284C156.717 1.33887 158.099 0.673977 159.499 0.00151455V0Z" fill="#006838"/>
<path d="M12.8499 32.061H9.03711V35.7035H12.8499V32.061Z" fill="#006838"/>
</g>
<defs>
<clipPath id="clip0_0_23441">
<rect width="159" height="50" fill="white" transform="translate(0.5)"/>
</clipPath>
</defs>
</svg>
