<svg width="21" height="15" viewBox="0 0 21 15" fill="none" xmlns="http://www.w3.org/2000/svg">
<path d="M12.5999 4.89999H10.3499C9.60434 4.89999 8.99993 5.5044 8.99993 6.24999C8.99993 6.99557 9.60434 7.59999 10.3499 7.59999H11.2499C11.9955 7.59999 12.5999 8.2044 12.5999 8.94999C12.5999 9.69557 11.9955 10.3 11.2499 10.3H8.99993M10.7999 3.99999V4.89999M10.7999 10.3V11.2M16.1999 7.59999H16.2089M5.39993 7.59999H5.40893M1.79993 4.17999L1.79993 11.02C1.79993 12.0281 1.79993 12.5321 1.99611 12.9172C2.16869 13.2559 2.44405 13.5312 2.78274 13.7038C3.16778 13.9 3.67183 13.9 4.67993 13.9L16.9199 13.9C17.928 13.9 18.4321 13.9 18.8171 13.7038C19.1558 13.5312 19.4312 13.2559 19.6037 12.9172C19.7999 12.5321 19.7999 12.0281 19.7999 11.02V4.17999C19.7999 3.17189 19.7999 2.66785 19.6037 2.28281C19.4312 1.94411 19.1558 1.66875 18.8171 1.49618C18.4321 1.29999 17.928 1.29999 16.9199 1.29999L4.67993 1.29999C3.67183 1.29999 3.16779 1.29999 2.78274 1.49618C2.44405 1.66875 2.16869 1.94411 1.99612 2.2828C1.79993 2.66785 1.79993 3.17189 1.79993 4.17999ZM16.6499 7.59999C16.6499 7.84852 16.4485 8.04999 16.1999 8.04999C15.9514 8.04999 15.7499 7.84852 15.7499 7.59999C15.7499 7.35146 15.9514 7.14999 16.1999 7.14999C16.4485 7.14999 16.6499 7.35146 16.6499 7.59999ZM5.84993 7.59999C5.84993 7.84852 5.64845 8.04999 5.39993 8.04999C5.1514 8.04999 4.94993 7.84852 4.94993 7.59999C4.94993 7.35146 5.1514 7.14999 5.39993 7.14999C5.64845 7.14999 5.84993 7.35146 5.84993 7.59999Z" stroke="#006838" stroke-width="1.8" stroke-linecap="round" stroke-linejoin="round"/>
</svg>
