<svg width="23" height="15" viewBox="0 0 23 15" fill="none" xmlns="http://www.w3.org/2000/svg">
<path d="M18.641 11.9003L18.6409 11.9003C18.3805 11.8984 18.1792 11.6841 18.1792 11.4256V9.51963C18.1792 9.26082 18.3801 9.04491 18.6416 9.04491C18.903 9.04491 19.104 9.26082 19.104 9.51964V9.51966V9.51968V9.51971V9.51975V9.51979V9.51984V9.5199V9.51996V9.52003V9.5201V9.52019V9.52028V9.52037V9.52047V9.52058V9.52069V9.52081V9.52094V9.52108V9.52122V9.52136V9.52151V9.52167V9.52184V9.52201V9.52219V9.52237V9.52256V9.52276V9.52297V9.52318V9.52339V9.52361V9.52384V9.52408V9.52432V9.52456V9.52482V9.52508V9.52534V9.52561V9.52589V9.52618V9.52647V9.52676V9.52706V9.52737V9.52769V9.52801V9.52833V9.52867V9.52901V9.52935V9.5297V9.53006V9.53042V9.53079V9.53117V9.53155V9.53193V9.53232V9.53272V9.53313V9.53354V9.53395V9.53438V9.5348V9.53524V9.53568V9.53612V9.53657V9.53703V9.53749V9.53796V9.53844V9.53892V9.5394V9.5399V9.54039V9.5409V9.5414V9.54192V9.54244V9.54296V9.5435V9.54403V9.54458V9.54513V9.54568V9.54624V9.5468V9.54737V9.54795V9.54853V9.54912V9.54971V9.55031V9.55092V9.55153V9.55214V9.55276V9.55339V9.55402V9.55466V9.5553V9.55595V9.5566V9.55726V9.55792V9.55859V9.55927V9.55995V9.56063V9.56132V9.56202V9.56272V9.56343V9.56414V9.56486V9.56558V9.56631V9.56704V9.56778V9.56852V9.56927V9.57003V9.57078V9.57155V9.57232V9.57309V9.57387V9.57466V9.57545V9.57624V9.57704V9.57785V9.57866V9.57947V9.58029V9.58112V9.58195V9.58279V9.58363V9.58447V9.58532V9.58618V9.58704V9.5879V9.58877V9.58965V9.59053V9.59142V9.59231V9.5932V9.5941V9.59501V9.59591V9.59683V9.59775V9.59867V9.5996V9.60053V9.60147V9.60242V9.60336V9.60432V9.60527V9.60624V9.6072V9.60817V9.60915V9.61013V9.61112V9.61211V9.6131V9.6141V9.6151V9.61611V9.61713V9.61814V9.61917V9.62019V9.62123V9.62226V9.6233V9.62435V9.6254V9.62645V9.62751V9.62857V9.62964V9.63071V9.63179V9.63287V9.63396V9.63505V9.63614V9.63724V9.63834V9.63945V9.64056V9.64167V9.6428V9.64392V9.64505V9.64618V9.64732V9.64846V9.64961V9.65076V9.65191V9.65307V9.65423V9.6554V9.65657V9.65775V9.65893V9.66011V9.6613V9.66249V9.66369V9.66489V9.66609V9.6673V9.66851V9.66973V9.67095V9.67218V9.6734V9.67464V9.67587V9.67711V9.67836V9.67961V9.68086V9.68212V9.68338V9.68464V9.68591V9.68718V9.68846V9.68974V9.69102V9.69231V9.6936V9.6949V9.6962V9.6975V9.69881V9.70012V9.70144V9.70275V9.70408V9.7054V9.70673V9.70807V9.7094V9.71074V9.71209V9.71344V9.71479V9.71614V9.7175V9.71887V9.72023V9.7216V9.72298V9.72435V9.72573V9.72712V9.72851V9.7299V9.73129V9.73269V9.73409V9.7355V9.73691V9.73832V9.73974V9.74116V9.74258V9.74401V9.74544V9.74687V9.74831V9.74975V9.75119V9.75264V9.75409V9.75554V9.757V9.75846V9.75992V9.76139V9.76286V9.76433V9.76581V9.76729V9.76877V9.77026V9.77175V9.77324V9.77473V9.77623V9.77774V9.77924V9.78075V9.78226V9.78378V9.78529V9.78682V9.78834V9.78987V9.7914V9.79293V9.79447V9.79601V9.79755V9.79909V9.80064V9.80219V9.80375V9.80531V9.80687V9.80843V9.81V9.81157V9.81314V9.81471V9.81629V9.81787V9.81946V9.82104V9.82263V9.82422V9.82582V9.82742V9.82902V9.83062V9.83223V9.83384V9.83545V9.83706V9.83868V9.8403V9.84192V9.84355V9.84518V9.84681V9.84844V9.85008V9.85172V9.85336V9.855V9.85665V9.8583V9.85995V9.8616V9.86326V9.86492V9.86658V9.86825V9.86991V9.87158V9.87325V9.87493V9.87661V9.87829V9.87997V9.88165V9.88334V9.88503V9.88672V9.88841V9.89011V9.89181V9.89351V9.89521V9.89692V9.89863V9.90034V9.90205V9.90377V9.90548V9.9072V9.90892V9.91065V9.91237V9.9141V9.91583V9.91757V9.9193V9.92104V9.92278V9.92452V9.92626V9.92801V9.92976V9.93151V9.93326V9.93502V9.93677V9.93853V9.94029V9.94205V9.94382V9.94559V9.94735V9.94912V9.9509V9.95267V9.95445V9.95623V9.95801V9.95979V9.96157V9.96336V9.96515V9.96694V9.96873V9.97052V9.97232V9.97412V9.97592V9.97772V9.97952V9.98133V9.98313V9.98494V9.98675V9.98856V9.99038V9.99219V9.99401V9.99583V9.99765V9.99947V10.0013V10.0031V10.0049V10.0068V10.0086V10.0104V10.0123V10.0141V10.0159V10.0178V10.0196V10.0215V10.0233V10.0251V10.027V10.0288V10.0307V10.0325V10.0344V10.0362V10.0381V10.04V10.0418V10.0437V10.0455V10.0474V10.0493V10.0511V10.053V10.0549V10.0567V10.0586V10.0605V10.0623V10.0642V10.0661V10.068V10.0698V10.0717V10.0736V10.0755V10.0774V10.0792V10.0811V10.083V10.0849V10.0868V10.0887V10.0906V10.0925V10.0944V10.0963V10.0981V10.1V10.1019V10.1038V10.1057V10.1076V10.1095V10.1114V10.1133V10.1153V10.1172V10.1191V10.121V10.1229V10.1248V10.1267V10.1286V10.1305V10.1324V10.1343V10.1363C19.104 10.5862 19.4707 10.9554 19.9207 10.9585L20.0422 10.9593C20.0423 10.9593 20.0424 10.9593 20.0425 10.9593M18.641 11.9003L20.4068 11.4363C20.4143 11.224 20.243 11.0501 20.0419 11.0493L20.0425 10.9593M18.641 11.9003L20.0339 11.9087L20.0341 11.9087C20.295 11.9097 20.496 11.6955 20.4968 11.4379M18.641 11.9003L20.4968 11.4379M20.0425 10.9593C20.2943 10.9604 20.5051 11.1761 20.4968 11.4379M20.0425 10.9593L20.4968 11.4379M18.1822 3.35716L18.1821 3.35716C17.7933 3.34695 17.4779 3.02916 17.4504 2.62369C17.4405 2.3732 17.2382 2.17449 16.9881 2.17449H3.63328C3.38939 2.17449 3.18826 2.37441 3.17844 2.62377C3.15094 3.03579 2.82219 3.35713 2.42667 3.35713C2.16521 3.35713 1.96425 3.57304 1.96425 3.83186V9.57195C1.96425 9.83077 2.16521 10.0467 2.42667 10.0467C2.83627 10.0467 3.17832 10.3932 3.17832 10.8254C3.17832 11.0842 3.37928 11.3001 3.64074 11.3001H15.1785C15.3076 11.3001 15.4226 11.4014 15.4503 11.5395C15.4888 11.7323 15.3492 11.915 15.171 11.915H2.04558C1.59823 11.915 1.23558 11.5523 1.23558 11.105V2.36965C1.23558 1.92229 1.59823 1.55965 2.04559 1.55965H18.546C18.9933 1.55965 19.356 1.92229 19.356 2.36965V6.81685C19.356 7.11893 19.0663 7.35981 18.7384 7.35981C18.6794 7.35981 18.6347 7.31376 18.6347 7.26217V3.83186C18.6347 3.57558 18.4338 3.3639 18.1822 3.35716ZM10.9896 7.45328L10.9896 7.45331L10.9916 7.45511C11.108 7.55997 11.1703 7.69776 11.1703 7.84146C11.1703 8.12798 10.898 8.36241 10.5528 8.36241H10.1356C9.93937 8.36241 9.7467 8.29218 9.61672 8.16864L9.61679 8.16857L9.6136 8.16582C9.56338 8.12237 9.52465 8.07168 9.49115 8.01431C9.36315 7.78919 9.08487 7.70713 8.86076 7.84026C8.63843 7.97232 8.56773 8.26046 8.68545 8.48496L8.68542 8.48498L8.68651 8.48693C8.76562 8.62913 8.86851 8.76078 8.99512 8.87526C9.18994 9.0532 9.42664 9.18176 9.68332 9.25166C9.77538 9.27673 9.83713 9.35262 9.83713 9.43345C9.83713 9.69227 10.0381 9.90818 10.2995 9.90818C10.5524 9.90818 10.762 9.69345 10.762 9.43345C10.762 9.36119 10.8195 9.29267 10.9051 9.27385C11.5945 9.12222 12.0951 8.53131 12.0951 7.84223C12.0951 7.43274 11.9285 7.03683 11.6115 6.74705L11.6113 6.74685C11.3118 6.47489 10.9179 6.31951 10.5007 6.31951H10.1282C9.73794 6.31951 9.42123 6.05171 9.42123 5.7224V5.72162C9.42123 5.38569 9.73842 5.1122 10.1431 5.1122H10.3964C10.7292 5.1122 11.0076 5.28973 11.1259 5.54641C11.2279 5.78579 11.5055 5.89265 11.7382 5.78304C11.9705 5.67358 12.0686 5.39304 11.9689 5.15721L11.9689 5.15721L11.9683 5.15565C11.7783 4.72885 11.3973 4.39075 10.9263 4.24322C10.8278 4.21237 10.762 4.1296 10.762 4.04115C10.762 3.78114 10.5524 3.56642 10.2995 3.56642C10.0381 3.56642 9.83713 3.78233 9.83713 4.04115C9.83713 4.12245 9.77502 4.19882 9.68239 4.22428C8.99297 4.41371 8.4964 5.01872 8.4964 5.72162V5.7224C8.4964 6.56766 9.21843 7.26896 10.1282 7.26896H10.5007C10.6889 7.26896 10.8668 7.33577 10.9896 7.45328ZM15.5964 12.8644C15.8623 12.8644 16.1119 13.0015 16.3006 13.2076C16.9103 13.8738 17.7773 14.2902 18.7384 14.2902C20.5935 14.2902 22.0908 12.7342 22.0908 10.8254C22.0908 9.67469 21.5465 8.65368 20.7088 8.02329C20.4553 7.83257 20.2808 7.5562 20.2808 7.25531V1.08492C20.2808 0.826106 20.0798 0.610195 19.8184 0.610195H0.773171C0.520315 0.610195 0.310757 0.824918 0.310757 1.08492V12.3897C0.310757 12.6497 0.520315 12.8644 0.773171 12.8644H15.5964ZM18.7384 8.30926C20.0786 8.30926 21.1659 9.4332 21.1659 10.8254C21.1659 12.2168 20.0786 13.3407 18.7384 13.3407C17.3979 13.3407 16.3034 12.2164 16.3034 10.8254C16.3034 9.43355 17.3979 8.30926 18.7384 8.30926ZM17.7099 6.92704C17.7099 7.27968 17.4724 7.59173 17.1461 7.77297C16.4286 8.17141 15.8702 8.83033 15.5863 9.62601C15.4405 10.0345 15.0941 10.3507 14.6844 10.3507H4.67971C4.30769 10.3507 3.98797 10.0746 3.73529 9.74863C3.65872 9.64986 3.57194 9.55988 3.47663 9.48043C3.16143 9.21769 2.88908 8.89922 2.88908 8.53053V4.87396C2.88908 4.50498 3.16205 4.18652 3.4772 3.92285C3.55952 3.85397 3.63537 3.7772 3.70366 3.69366C3.95663 3.38423 4.2692 3.12393 4.62977 3.12393H15.9937C16.3566 3.12393 16.6703 3.38788 16.926 3.69916C16.9897 3.77662 17.06 3.84821 17.1361 3.91301C17.4444 4.17541 17.7099 4.48957 17.7099 4.8531V4.85659V4.86009V4.86359V4.8671V4.87062V4.87414V4.87767V4.8812V4.88474V4.88829V4.89184V4.8954V4.89896V4.90253V4.90611V4.90969V4.91327V4.91687V4.92046V4.92407V4.92767V4.93129V4.93491V4.93853V4.94217V4.9458V4.94944V4.95309V4.95674V4.9604V4.96406V4.96773V4.97141V4.97509V4.97877V4.98246V4.98616V4.98986V4.99356V4.99727V5.00099V5.00471V5.00844V5.01217V5.0159V5.01964V5.02339V5.02714V5.0309V5.03466V5.03843V5.0422V5.04597V5.04975V5.05354V5.05733V5.06112V5.06492V5.06873V5.07254V5.07635V5.08017V5.08399V5.08782V5.09165V5.09549V5.09933V5.10318V5.10703V5.11088V5.11474V5.11861V5.12248V5.12635V5.13023V5.13411V5.13799V5.14189V5.14578V5.14968V5.15358V5.15749V5.1614V5.16532V5.16924V5.17316V5.17709V5.18102V5.18496V5.1889V5.19284V5.19679V5.20074V5.2047V5.20866V5.21262V5.21659V5.22056V5.22454V5.22852V5.2325V5.23649V5.24048V5.24447V5.24847V5.25247V5.25648V5.26048V5.2645V5.26851V5.27253V5.27656V5.28058V5.28461V5.28865V5.29268V5.29672V5.30077V5.30482V5.30887V5.31292V5.31698V5.32104V5.3251V5.32917V5.33324V5.33731V5.34139V5.34547V5.34955V5.35364V5.35773V5.36182V5.36592V5.37002V5.37412V5.37822V5.38233V5.38644V5.39055V5.39467V5.39879V5.40291V5.40703V5.41116V5.41529V5.41943V5.42356V5.4277V5.43184V5.43598V5.44013V5.44428V5.44843V5.45259V5.45674V5.4609V5.46506V5.46923V5.47339V5.47756V5.48173V5.48591V5.49008V5.49426V5.49844V5.50263V5.50681V5.511V5.51519V5.51938V5.52358V5.52777V5.53197V5.53617V5.54038V5.54458V5.54879V5.553V5.55721V5.56142V5.56564V5.56985V5.57407V5.57829V5.58251V5.58674V5.59096V5.59519V5.59942V5.60365V5.60789V5.61212V5.61636V5.6206V5.62484V5.62908V5.63332V5.63757V5.64181V5.64606V5.65031V5.65456V5.65881V5.66307V5.66732V5.67158V5.67584V5.6801V5.68436V5.68862V5.69288V5.69715V5.70141V5.70568V5.70995V5.71422V5.71849V5.72276V5.72703V5.7313V5.73558V5.73985V5.74413V5.74841V5.75269V5.75697V5.76125V5.76553V5.76981V5.7741V5.77838V5.78266V5.78695V5.79124V5.79552V5.79981V5.8041V5.80839V5.81268V5.81697V5.82126V5.82555V5.82985V5.83414V5.83843V5.84273V5.84702V5.85131V5.85561V5.8599V5.8642V5.8685V5.87279V5.87709V5.88139V5.88569V5.88998V5.89428V5.89858V5.90288V5.90718V5.91147V5.91577V5.92007V5.92437V5.92867V5.93297V5.93727V5.94157V5.94587V5.95016V5.95446V5.95876V5.96306V5.96736V5.97166V5.97595V5.98025V5.98455V5.98885V5.99314V5.99744V6.00173V6.00603V6.01033V6.01462V6.01892V6.02321V6.0275V6.0318V6.03609V6.04038V6.04467V6.04896V6.05325V6.05754V6.06183V6.06612V6.07041V6.07469V6.07898V6.08326V6.08755V6.09183V6.09612V6.1004V6.10468V6.10896V6.11324V6.11752V6.12179V6.12607V6.13034V6.13462V6.13889V6.14316V6.14744V6.1517V6.15597V6.16024V6.16451V6.16877V6.17304V6.1773V6.18156V6.18582V6.19008V6.19434V6.19859V6.20285V6.2071V6.21135V6.2156V6.21985V6.2241V6.22834V6.23258V6.23683V6.24107V6.24531V6.24954V6.25378V6.25801V6.26225V6.26648V6.27071V6.27493V6.27916V6.28338V6.2876V6.29182V6.29604V6.30026V6.30447V6.30868V6.31289V6.3171V6.32131V6.32551V6.32971V6.33391V6.33811V6.3423V6.3465V6.35069V6.35488V6.35906V6.36325V6.36743V6.37161V6.37579V6.37996V6.38413V6.3883V6.39247V6.39664V6.4008V6.40496V6.40912V6.41327V6.41743V6.42158V6.42572V6.42987V6.43401V6.43815V6.44229V6.44642V6.45055V6.45468V6.45881V6.46293V6.46705V6.47117V6.47528V6.47939V6.4835V6.48761V6.49171V6.49581V6.49991V6.504V6.50809V6.51218V6.51627V6.52035V6.52443V6.5285V6.53257V6.53664V6.54071V6.54477V6.54883V6.55288V6.55694V6.56098V6.56503V6.56907V6.57311V6.57715V6.58118V6.58521V6.58923V6.59325V6.59727V6.60128V6.6053V6.6093V6.61331V6.61731V6.6213V6.62529V6.62928V6.63327V6.63725V6.64123V6.6452V6.64917V6.65313V6.6571V6.66105V6.66501V6.66896V6.6729V6.67685V6.68078V6.68472V6.68865V6.69257V6.6965V6.70041V6.70433V6.70824V6.71214V6.71604V6.71994V6.72383V6.72772V6.7316V6.73548V6.73936V6.74323V6.74709V6.75095V6.75481V6.75866V6.76251V6.76636V6.7702V6.77403V6.77786V6.78169V6.78551V6.78932V6.79313V6.79694V6.80074V6.80454V6.80833V6.81212V6.8159V6.81968V6.82345V6.82722V6.83099V6.83474V6.8385V6.84225V6.84599V6.84973V6.85346V6.85719V6.86091V6.86463V6.86834V6.87205V6.87576V6.87945V6.88315V6.88683V6.89051V6.89419V6.89786V6.90153V6.90519V6.90884V6.91249V6.91614V6.91978V6.92341V6.92704Z" fill="#39B54A" stroke="#39B54A" stroke-width="0.18"/>
</svg>
