<svg width="35" height="36" viewBox="0 0 35 36" fill="none" xmlns="http://www.w3.org/2000/svg">
<g clip-path="url(#clip0_1_36)">
<path d="M8.01565 16.2346C7.24173 16.3385 6.5125 16.4352 5.78632 16.533C4.97076 11.7333 7.05384 5.23821 13.1446 1.83647C18.7439 -1.29011 26.0047 -0.351736 30.507 4.09018C35.309 8.82541 36.3795 15.903 33.1497 21.6381C29.8336 27.5254 23.6504 29.4465 19.9047 29.0615V26.8733C24.3705 26.8612 27.9303 25.1255 30.4867 21.5434C32.3118 18.9873 33.0024 16.0905 32.581 12.9891C31.6852 6.39429 26.0037 1.83647 19.2466 2.33136C15.7345 2.58838 12.842 4.16678 10.636 6.89422C8.44222 9.60655 7.61955 12.7331 8.01463 16.2357L8.01565 16.2346Z" fill="#BABABA"/>
<path d="M18.9425 11.4399C18.9425 10.3312 18.9425 9.22247 18.9425 8.11375C18.9425 7.26004 19.429 6.68149 20.1582 6.66537C20.9027 6.64924 21.4136 7.23182 21.4156 8.11476C21.4186 9.97942 21.4258 11.8441 21.4085 13.7077C21.4054 14.0615 21.4999 14.2883 21.8005 14.4989C23.4042 15.6218 24.9886 16.7718 26.5852 17.9047C27.026 18.2172 27.3398 18.5962 27.2748 19.1606C27.1641 20.1252 26.1058 20.5666 25.2781 19.9841C23.5952 18.7987 21.9204 17.6023 20.2517 16.3969C18.7699 15.3265 18.9496 15.653 18.9425 13.8589C18.9395 13.0526 18.9425 12.2462 18.9425 11.4399Z" fill="#BABABA"/>
<path d="M9.53875 17.1024C14.8627 17.1216 19.0644 21.3498 19.0421 26.6424C19.0198 31.8967 14.5042 36.1895 9.13554 35.994C4.39859 35.8206 -0.188044 31.8625 0.00594295 26.1213C0.168445 21.3015 4.28179 17.0732 9.53875 17.1024ZM9.44531 33.0095C9.99917 33.0095 10.2761 32.7367 10.2761 32.1911C10.2761 31.6878 10.5185 31.3447 11.0033 31.162C12.7258 30.5129 13.4053 28.5827 12.4587 27.0214C12.0738 26.3854 11.4918 25.9954 10.8205 25.698C10.1806 25.4148 9.54586 25.1175 8.93241 24.7838C8.61959 24.6135 8.45303 24.299 8.54748 23.9261C8.64092 23.5572 8.92733 23.3939 9.28585 23.3304C10.0445 23.1943 10.7626 23.3354 11.4614 23.6277C11.9428 23.8293 12.024 23.791 12.1774 23.2871C12.2637 23.0048 12.346 22.7226 12.4262 22.4384C12.4943 22.1965 12.4262 22.007 12.1764 21.9233C11.8453 21.8115 11.5132 21.6956 11.1739 21.6179C10.3594 21.4335 10.3574 21.4416 10.3381 20.6221C10.3381 20.609 10.337 20.5949 10.3381 20.5818C10.3655 20.2129 10.1837 20.0688 9.82414 20.093C9.62203 20.1061 9.41789 20.1071 9.21577 20.093C8.89077 20.0708 8.68663 20.221 8.74045 20.5314C8.87757 21.3267 8.53834 21.7691 7.77864 21.9485C7.74005 21.9576 7.70653 21.9848 7.67098 22.003C5.92611 22.9131 5.71689 25.2807 7.3277 26.4086C7.94622 26.842 8.6917 27.097 9.37117 27.4478C9.69109 27.6131 10.0364 27.7663 10.2964 28.0041C10.7799 28.4456 10.7037 29.1371 10.1085 29.4092C9.71242 29.5906 9.21577 29.6934 8.78921 29.639C8.1849 29.5624 7.59481 29.3326 7.01691 29.1199C6.72339 29.0121 6.58628 29.0645 6.50604 29.3457C6.41057 29.6803 6.31714 30.016 6.21252 30.3476C6.11909 30.6449 6.21963 30.8566 6.49894 30.9644C6.87472 31.1096 7.25559 31.2517 7.64559 31.3535C8.56678 31.5934 8.5749 31.5823 8.62061 32.5287C8.63686 32.8593 8.77905 33.0276 9.12234 33.0105C9.22999 33.0045 9.33867 33.0105 9.44734 33.0105L9.44531 33.0095Z" fill="#BABABA"/>
</g>
<defs>
<clipPath id="clip0_1_36">
<rect width="35" height="36" fill="white"/>
</clipPath>
</defs>
</svg>
