<svg width="21" height="18" viewBox="0 0 21 18" fill="none" xmlns="http://www.w3.org/2000/svg">
<path d="M17.0999 17.1L14.3999 14.4M14.3999 14.4L17.0999 11.7M14.3999 14.4H19.7999M13.9499 1.16171C15.2693 1.69576 16.1999 2.9892 16.1999 4.50002C16.1999 6.01084 15.2693 7.30429 13.9499 7.83834M10.7999 11.7H7.19993C5.52254 11.7 4.68384 11.7 4.02227 11.9741C3.14017 12.3394 2.43934 13.0403 2.07396 13.9224C1.79993 14.5839 1.79993 15.4226 1.79993 17.1M12.1499 4.50002C12.1499 6.48825 10.5382 8.10002 8.54993 8.10002C6.5617 8.10002 4.94993 6.48825 4.94993 4.50002C4.94993 2.5118 6.5617 0.900024 8.54993 0.900024C10.5382 0.900024 12.1499 2.5118 12.1499 4.50002Z" stroke="#006838" stroke-width="1.8" stroke-linecap="round" stroke-linejoin="round"/>
</svg>
