<svg width="33" height="33" viewBox="0 0 33 33" fill="none" xmlns="http://www.w3.org/2000/svg">
<g clip-path="url(#clip0_1_223)">
<path d="M15.7183 19.7949C15.5044 19.9908 15.3021 20.1761 15.0952 20.3654C15.1218 20.4027 15.1398 20.4283 15.1579 20.4534C15.5024 20.9351 15.4536 21.5713 15.0337 21.991C13.747 23.2776 12.4586 24.5622 11.171 25.8475C9.06658 27.9487 6.96214 30.0499 4.85729 32.1511C4.6246 32.3835 4.3997 32.6235 4.09777 32.7764C3.32269 33.1689 2.37145 33.0367 1.74959 32.4337C1.35262 32.0485 0.959755 31.6585 0.5759 31.2607C-0.206966 30.4497 -0.188121 29.1915 0.608673 28.3943C2.69058 26.3114 4.77167 24.2276 6.85317 22.1443C8.22923 20.7665 9.60528 19.3886 10.9813 18.0108C11.4201 17.5717 12.062 17.5145 12.5708 17.8681C12.5889 17.8807 12.6077 17.8924 12.6253 17.9038C12.8236 17.7039 13.0186 17.5068 13.2353 17.2882C13.1816 17.2436 13.1128 17.1958 13.0555 17.137C12.7208 16.794 12.7265 16.2656 13.0657 15.927C13.1857 15.8074 13.3029 15.685 13.4266 15.5686C13.4766 15.5216 13.4848 15.4863 13.4504 15.4234C12.9952 14.595 12.6618 13.7204 12.4479 12.8012C12.1911 11.6983 12.1124 10.5832 12.2177 9.45599C12.3873 7.63903 12.9785 5.96805 14.0354 4.47183C15.5614 2.31224 17.615 0.889006 20.2131 0.285652C22.5609 -0.259719 24.8472 -0.0290008 27.0262 1.00214C29.342 2.09815 31.0241 3.82712 32.0839 6.14038C32.6902 7.46387 32.9966 8.85912 32.9999 10.3124C33.0061 13.2355 31.9876 15.7563 29.9078 17.8361C28.4424 19.3011 26.6727 20.2328 24.6293 20.642C23.5474 20.8589 22.456 20.897 21.3585 20.7677C20.0214 20.6099 18.7658 20.2057 17.588 19.5626C17.5196 19.5253 17.4843 19.5362 17.4352 19.5885C17.3147 19.7163 17.1894 19.8403 17.0632 19.9624C16.7396 20.2754 16.2136 20.2774 15.8862 19.9668C15.824 19.9076 15.7662 19.8436 15.7187 19.7945L15.7183 19.7949ZM32.2408 10.7219C32.2384 9.812 32.1839 9.19446 32.063 8.58461C31.7082 6.79158 30.9143 5.21629 29.6698 3.86442C27.4031 1.40275 23.9816 0.291734 20.6928 0.953883C18.9382 1.30746 17.4004 2.08558 16.0841 3.2858C13.4889 5.65299 12.3783 9.23014 13.1972 12.6313C13.7646 14.9876 15.0272 16.901 17.0288 18.308C19.2107 19.8416 21.6375 20.3784 24.2712 19.934C26.2593 19.5983 27.9688 18.6985 29.3855 17.2805C31.2773 15.3874 32.1957 13.0867 32.2408 10.7219ZM3.17931 32.2415C3.53162 32.2314 3.8233 32.1049 4.06541 31.8628C6.15797 29.773 8.25135 27.6835 10.3443 25.5941C11.72 24.2207 13.096 22.8478 14.4717 21.474C14.6822 21.2636 14.681 21.0126 14.47 20.8013C13.7265 20.0573 12.9817 19.3144 12.2386 18.5696C11.9867 18.3169 11.7605 18.3113 11.5102 18.5619C9.6823 20.3918 7.85439 22.2221 6.02647 24.0521C4.4042 25.6764 2.78153 27.3 1.15967 28.9247C0.635301 29.4498 0.633663 30.2368 1.1568 30.7652C1.51894 31.1309 1.88436 31.4934 2.24937 31.8567C2.50787 32.1138 2.82905 32.2229 3.17931 32.2419V32.2415ZM13.198 18.4528C13.6569 18.896 14.1226 19.3457 14.5593 19.7674C14.7461 19.5995 14.9469 19.419 15.1566 19.2305C14.6839 18.7747 14.2214 18.3291 13.7605 17.8843C13.5856 18.0611 13.3955 18.2533 13.198 18.4528ZM13.8924 16.1776C13.7982 16.2729 13.715 16.3569 13.6319 16.4408C13.5503 16.5231 13.5483 16.5543 13.6339 16.6379C13.7818 16.7834 13.935 16.9241 14.0821 17.0705C14.6097 17.596 15.1366 18.1227 15.6622 18.6503C15.9055 18.8948 16.1451 19.1429 16.3864 19.3894C16.4262 19.43 16.4684 19.4722 16.5249 19.4194C16.6277 19.3242 16.7269 19.2256 16.8362 19.1194C15.6536 18.3287 14.6781 17.3556 13.892 16.1772L13.8924 16.1776Z" fill="#BABABA"/>
<path d="M22.5897 18.8381C19.9826 18.7903 17.8277 17.7888 16.1416 15.8189C15.1539 14.6649 14.5377 13.3297 14.294 11.8379C13.9376 9.65524 14.3509 7.6177 15.5893 5.77276C16.7811 3.99717 18.4185 2.7864 20.5209 2.2828C23.3533 1.60402 25.9075 2.21062 28.1144 4.10665C29.5752 5.36201 30.497 6.95231 30.8407 8.83779C31.3134 11.4288 30.7211 13.7741 29.0283 15.8149C27.7764 17.3245 26.1677 18.2794 24.2283 18.6735C23.6888 18.7834 23.1423 18.8329 22.5893 18.8377L22.5897 18.8381ZM30.2332 10.3596C30.2307 9.9407 30.1885 9.45615 30.0939 8.97768C29.7919 7.45389 29.1 6.12878 27.9894 5.03114C26.3246 3.3853 24.3078 2.63962 21.9612 2.80587C20.6089 2.90196 19.3771 3.35651 18.262 4.12205C15.8126 5.80358 14.5431 8.78102 15.0429 11.6883C15.3001 13.1849 15.9441 14.4955 16.9801 15.617C19.0145 17.8192 22.094 18.6232 24.9616 17.6987C28.0763 16.6948 30.2327 13.7202 30.2336 10.3591L30.2332 10.3596Z" fill="#BABABA"/>
<path d="M22.8423 4.11844C25.2303 4.3005 27.0217 5.40949 28.1733 7.49406C28.6678 8.38896 28.8882 9.3613 28.9 10.3795C28.9037 10.6763 28.6538 10.8677 28.3896 10.7772C28.2311 10.7229 28.1348 10.5826 28.1336 10.401C28.1295 9.81503 28.0516 9.23803 27.8525 8.68617C27.1209 6.6604 25.6965 5.40544 23.5617 4.9663C23.25 4.90223 22.9243 4.8994 22.6043 4.87993C22.3262 4.86331 22.1439 4.62367 22.2324 4.37268C22.2848 4.22346 22.4196 4.12412 22.583 4.11844C22.6695 4.1156 22.7563 4.11804 22.8432 4.11804L22.8423 4.11844Z" fill="#BABABA"/>
</g>
<defs>
<clipPath id="clip0_1_223">
<rect width="33" height="33" fill="white"/>
</clipPath>
</defs>
</svg>
