<svg width="20" height="20" viewBox="0 0 20 20" fill="none" xmlns="http://www.w3.org/2000/svg">
<g clip-path="url(#clip0_0_25918)">
<path d="M1.40598 19.0792L19.4057 10.9311C19.5826 10.8512 19.7329 10.7207 19.8384 10.5554C19.9439 10.3902 20 10.1973 20 10.0002C20 9.80313 19.9439 9.61027 19.8384 9.44503C19.7329 9.27979 19.5826 9.14927 19.4057 9.06931L1.40598 0.921221C1.2347 0.843716 1.04549 0.816799 0.859913 0.843538C0.674337 0.870278 0.499876 0.949598 0.356424 1.07245C0.212975 1.19531 0.106308 1.35675 0.0485935 1.53837C-0.00912094 1.71999 -0.0155621 1.91447 0.0300064 2.09964L1.71898 8.98172L10.9998 8.98172C11.2651 8.98172 11.5194 9.08902 11.7069 9.28003C11.8945 9.47104 11.9998 9.7301 11.9998 10.0002C11.9998 10.2704 11.8945 10.5294 11.7069 10.7204C11.5194 10.9114 11.2651 11.0187 10.9998 11.0187L1.71898 11.0187L0.0300064 17.9018C-0.0153217 18.0869 -0.00869942 18.2813 0.049118 18.4627C0.106936 18.6442 0.213625 18.8054 0.357031 18.9282C0.500439 19.0509 0.674799 19.1301 0.860252 19.1568C1.0457 19.1835 1.2348 19.1566 1.40598 19.0792Z" fill="#39B54A"/>
</g>
<defs>
<clipPath id="clip0_0_25918">
<rect width="20" height="20" fill="white" transform="matrix(0 1 -1 0 20 0)"/>
</clipPath>
</defs>
</svg>
