<svg width="21" height="21" viewBox="0 0 21 21" fill="none" xmlns="http://www.w3.org/2000/svg">
<path d="M10.8 13.5C12.2912 13.5 13.5 12.2912 13.5 10.8C13.5 9.30888 12.2912 8.10005 10.8 8.10005C9.30888 8.10005 8.10005 9.30888 8.10005 10.8C8.10005 12.2912 9.30888 13.5 10.8 13.5Z" stroke="#006838" stroke-width="1.8" stroke-linecap="round" stroke-linejoin="round"/>
<path d="M16.8546 13.2546C16.7457 13.5014 16.7132 13.7751 16.7613 14.0405C16.8094 14.3059 16.936 14.5509 17.1246 14.7437L17.1737 14.7928C17.3258 14.9447 17.4465 15.1252 17.5289 15.3239C17.6112 15.5225 17.6536 15.7355 17.6536 15.9505C17.6536 16.1655 17.6112 16.3785 17.5289 16.5771C17.4465 16.7758 17.3258 16.9563 17.1737 17.1082C17.0217 17.2604 16.8412 17.3811 16.6426 17.4634C16.4439 17.5458 16.231 17.5882 16.016 17.5882C15.8009 17.5882 15.588 17.5458 15.3893 17.4634C15.1907 17.3811 15.0102 17.2604 14.8582 17.1082L14.8091 17.0591C14.6163 16.8705 14.3714 16.744 14.106 16.6959C13.8406 16.6477 13.5668 16.6802 13.32 16.7891C13.0781 16.8929 12.8717 17.0651 12.7263 17.2846C12.5809 17.5041 12.5029 17.7613 12.5019 18.0246V18.1637C12.5019 18.5977 12.3295 19.0139 12.0226 19.3208C11.7157 19.6276 11.2995 19.8 10.8655 19.8C10.4315 19.8 10.0153 19.6276 9.70842 19.3208C9.40154 19.0139 9.22914 18.5977 9.22914 18.1637V18.09C9.2228 17.8192 9.13515 17.5566 8.97756 17.3363C8.81997 17.1159 8.59974 16.9481 8.3455 16.8546C8.09873 16.7457 7.82498 16.7132 7.55957 16.7613C7.29415 16.8094 7.04924 16.936 6.85641 17.1246L6.80732 17.1737C6.65535 17.3258 6.47488 17.4465 6.27622 17.5289C6.07757 17.6112 5.86464 17.6536 5.64959 17.6536C5.43455 17.6536 5.22162 17.6112 5.02296 17.5289C4.82431 17.4465 4.64384 17.3258 4.49187 17.1737C4.33972 17.0217 4.21903 16.8412 4.13668 16.6426C4.05433 16.4439 4.01194 16.231 4.01194 16.016C4.01194 15.8009 4.05433 15.588 4.13668 15.3893C4.21903 15.1907 4.33972 15.0102 4.49187 14.8582L4.54096 14.8091C4.72958 14.6163 4.85611 14.3714 4.90423 14.106C4.95236 13.8406 4.91987 13.5668 4.81096 13.32C4.70724 13.0781 4.53503 12.8717 4.31552 12.7263C4.09601 12.5809 3.83878 12.5029 3.5755 12.5019H3.43641C3.00242 12.5019 2.58621 12.3295 2.27933 12.0226C1.97245 11.7157 1.80005 11.2995 1.80005 10.8655C1.80005 10.4315 1.97245 10.0153 2.27933 9.70842C2.58621 9.40154 3.00242 9.22914 3.43641 9.22914H3.51005C3.78086 9.2228 4.04351 9.13515 4.26384 8.97756C4.48417 8.81997 4.652 8.59974 4.7455 8.3455C4.85442 8.09873 4.8869 7.82498 4.83878 7.55957C4.79066 7.29415 4.66412 7.04924 4.4755 6.85641L4.42641 6.80732C4.27427 6.65535 4.15357 6.47488 4.07122 6.27622C3.98888 6.07757 3.94649 5.86464 3.94649 5.64959C3.94649 5.43455 3.98888 5.22162 4.07122 5.02296C4.15357 4.82431 4.27427 4.64384 4.42641 4.49187C4.57839 4.33972 4.75886 4.21903 4.95751 4.13668C5.15616 4.05433 5.3691 4.01194 5.58414 4.01194C5.79918 4.01194 6.01212 4.05433 6.21077 4.13668C6.40942 4.21903 6.58989 4.33972 6.74187 4.49187L6.79096 4.54096C6.98379 4.72958 7.2287 4.85611 7.49411 4.90423C7.75953 4.95236 8.03327 4.91987 8.28005 4.81096H8.3455C8.5875 4.70724 8.79388 4.53503 8.93925 4.31552C9.08462 4.09601 9.16263 3.83878 9.16368 3.5755V3.43641C9.16368 3.00242 9.33609 2.58621 9.64297 2.27933C9.94984 1.97245 10.3661 1.80005 10.8 1.80005C11.234 1.80005 11.6503 1.97245 11.9571 2.27933C12.264 2.58621 12.4364 3.00242 12.4364 3.43641V3.51005C12.4375 3.77333 12.5155 4.03056 12.6608 4.25007C12.8062 4.46958 13.0126 4.64179 13.2546 4.7455C13.5014 4.85442 13.7751 4.8869 14.0405 4.83878C14.3059 4.79066 14.5509 4.66412 14.7437 4.4755L14.7928 4.42641C14.9447 4.27427 15.1252 4.15357 15.3239 4.07122C15.5225 3.98888 15.7355 3.94649 15.9505 3.94649C16.1655 3.94649 16.3785 3.98888 16.5771 4.07122C16.7758 4.15357 16.9563 4.27427 17.1082 4.42641C17.2604 4.57839 17.3811 4.75886 17.4634 4.95751C17.5458 5.15616 17.5882 5.3691 17.5882 5.58414C17.5882 5.79918 17.5458 6.01212 17.4634 6.21077C17.3811 6.40942 17.2604 6.58989 17.1082 6.74187L17.0591 6.79096C16.8705 6.98379 16.744 7.2287 16.6959 7.49411C16.6477 7.75953 16.6802 8.03327 16.7891 8.28005V8.3455C16.8929 8.5875 17.0651 8.79388 17.2846 8.93925C17.5041 9.08462 17.7613 9.16263 18.0246 9.16368H18.1637C18.5977 9.16368 19.0139 9.33609 19.3208 9.64297C19.6276 9.94984 19.8 10.3661 19.8 10.8C19.8 11.234 19.6276 11.6503 19.3208 11.9571C19.0139 12.264 18.5977 12.4364 18.1637 12.4364H18.09C17.8268 12.4375 17.5695 12.5155 17.35 12.6608C17.1305 12.8062 16.9583 13.0126 16.8546 13.2546Z" stroke="#006838" stroke-width="1.8" stroke-linecap="round" stroke-linejoin="round"/>
</svg>
