<svg width="21" height="20" viewBox="0 0 21 20" fill="none" xmlns="http://www.w3.org/2000/svg">
<path d="M10.2 14.4003C10.2 16.8856 12.2147 18.9003 14.7 18.9003C17.1852 18.9003 19.2 16.8856 19.2 14.4003C19.2 11.915 17.1852 9.90029 14.7 9.90029C12.2147 9.90029 10.2 11.915 10.2 14.4003ZM10.2 14.4003C10.2 13.3871 10.5348 12.452 11.1 11.6999V3.60029M10.2 14.4003C10.2 15.1431 10.3799 15.8439 10.6987 16.4614C9.94045 17.1019 8.18921 17.5503 6.14995 17.5503C3.41614 17.5503 1.19995 16.7444 1.19995 15.7503V3.60029M11.1 3.60029C11.1 4.59441 8.88376 5.40029 6.14995 5.40029C3.41614 5.40029 1.19995 4.59441 1.19995 3.60029M11.1 3.60029C11.1 2.60618 8.88376 1.80029 6.14995 1.80029C3.41614 1.80029 1.19995 2.60618 1.19995 3.60029M1.19995 11.7003C1.19995 12.6944 3.41614 13.5003 6.14995 13.5003C8.12005 13.5003 9.82134 13.0818 10.6181 12.4759M11.1 7.65029C11.1 8.64441 8.88376 9.45029 6.14995 9.45029C3.41614 9.45029 1.19995 8.64441 1.19995 7.65029" stroke="#39B54A" stroke-width="1.8" stroke-linecap="round" stroke-linejoin="round"/>
</svg>
