<svg width="21" height="19" viewBox="0 0 21 19" fill="none" xmlns="http://www.w3.org/2000/svg">
<path d="M19.2 18.0003V16.2003C19.2 14.5228 18.0527 13.1133 16.5 12.7137M13.35 2.06198C14.6693 2.59602 15.6 3.88947 15.6 5.40029C15.6 6.91111 14.6693 8.20456 13.35 8.73861M14.7 18.0003C14.7 16.3229 14.7 15.4842 14.426 14.8226C14.0606 13.9405 13.3598 13.2397 12.4777 12.8743C11.8161 12.6003 10.9774 12.6003 9.30001 12.6003H6.60001C4.92262 12.6003 4.08393 12.6003 3.42235 12.8743C2.54025 13.2397 1.83942 13.9405 1.47405 14.8226C1.20001 15.4842 1.20001 16.3229 1.20001 18.0003M11.55 5.40029C11.55 7.38852 9.93824 9.00029 7.95001 9.00029C5.96179 9.00029 4.35001 7.38852 4.35001 5.40029C4.35001 3.41207 5.96179 1.80029 7.95001 1.80029C9.93824 1.80029 11.55 3.41207 11.55 5.40029Z" stroke="#39B54A" stroke-width="1.8" stroke-linecap="round" stroke-linejoin="round"/>
</svg>
