<svg width="229" height="76" viewBox="0 0 229 76" fill="none" xmlns="http://www.w3.org/2000/svg">
<g clip-path="url(#clip0_0_24398)">
<path d="M49.2386 53.8872H53.0974C55.7803 53.8872 57.5453 54.8165 57.5453 57.2597C57.5453 59.7028 55.7803 60.7919 53.0974 60.7919H50.1885V66.6509H49.2363V53.8895L49.2386 53.8872ZM52.8531 60.0384C55.2437 60.0384 56.5703 59.1411 56.5703 57.2597C56.5703 55.3782 55.2437 54.6407 52.8531 54.6407H50.1908V60.0384H52.8531ZM53.7892 60.2691L57.801 66.6486H56.705L52.8851 60.5271L53.7892 60.2668V60.2691Z" fill="white"/>
<path d="M74.0472 53.8872H82.0434V54.6567H74.9925V59.4882H80.9268V60.2576H74.9925V65.8837H82.2466V66.6532H74.0449V53.8918L74.0472 53.8872Z" fill="white"/>
<path d="M101.723 54.6542H97.0195V53.8848H107.372V54.6542H102.668V66.6485H101.723V54.6542Z" fill="white"/>
<path d="M122.465 61.8742V53.8872H123.417V61.7715C123.417 65.048 124.999 66.0687 126.808 66.0687C128.616 66.0687 130.24 65.0503 130.24 61.7715V53.8872H131.139V61.8742C131.139 65.7422 129.073 66.8815 126.808 66.8815C124.543 66.8815 122.465 65.7399 122.465 61.8742Z" fill="white"/>
<path d="M147.659 53.8872H151.517C154.2 53.8872 155.965 54.8165 155.965 57.2597C155.965 59.7028 154.2 60.7919 151.517 60.7919H148.608V66.6509H147.656V53.8895L147.659 53.8872ZM151.273 60.0384C153.664 60.0384 154.99 59.1411 154.99 57.2597C154.99 55.3782 153.664 54.6407 151.273 54.6407H148.611V60.0384H151.273ZM152.209 60.2691L156.221 66.6486H155.125L151.305 60.5271L152.209 60.2668V60.2691Z" fill="white"/>
<path d="M171.75 53.8872H172.755L178.015 62.9108L179.456 65.4316H179.497C179.465 64.2009 179.376 62.9657 179.376 61.7281V53.8872H180.269V66.6486H179.264L174.004 57.625L172.563 55.1042H172.522C172.554 56.3463 172.643 57.504 172.643 58.737V66.6486H171.75V53.8872Z" fill="white"/>
<path d="M42.7999 20.0759V25.5535C42.7999 25.9394 43.1127 26.25 43.4963 26.25H59.194C59.5776 26.25 59.8904 26.5628 59.8904 26.9464C59.8927 27.9236 59.9019 28.8712 59.8996 29.8005C51.0289 28.6337 42.3386 27.7273 34.3242 27.0286V12.7853C34.3242 12.3994 34.637 12.0889 35.0206 12.0889H59.8722C60.2581 12.0889 60.5686 12.4017 60.5686 12.7853V18.6785C60.5686 19.0644 60.2558 19.3749 59.8722 19.3749H43.494C43.1081 19.3749 42.7976 19.6877 42.7976 20.0713L42.7999 20.0759Z" fill="white"/>
<path d="M28.5961 23.3708H21.1091C20.8785 23.3708 20.6593 23.2315 20.5931 23.0123C20.5931 23.0123 20.5931 23.0101 20.5931 23.0078C19.424 19.0325 16.1246 17.3977 12.1928 18.875C11.0305 19.3134 10.3159 20.1125 10.1834 21.4254C10.0464 22.7817 10.4574 23.9005 11.7087 24.3915C12.9325 24.871 14.1975 25.25 15.4579 25.6381C9.91173 25.3048 5.17614 25.0856 1.56166 24.9417C0.630071 20.8272 2.2946 16.0619 5.8383 13.8494C9.59891 11.4999 13.7226 11.219 17.9604 11.71C20.9333 12.0547 23.655 13.1028 25.8287 15.2537C27.9156 17.3178 28.9637 19.8226 29.1486 22.7794C29.1692 23.0991 28.918 23.3708 28.5983 23.3708H28.5961Z" fill="white"/>
<path d="M126.929 37.5707C126.589 40.3175 125.289 42.9296 123.362 45.0097C120.778 43.8544 118.019 42.7652 115.117 41.7354C116.487 40.9477 117.476 39.6553 118.129 37.9611C118.458 37.1049 118.866 36.7396 119.83 36.7692C121.94 36.8355 124.049 36.8035 126.235 36.7966C126.65 36.7966 126.979 37.1597 126.929 37.5707Z" fill="white"/>
<path d="M125.616 24.7066C123.459 24.6473 121.299 24.6838 119.136 24.6884C118.871 24.6884 118.629 24.5377 118.513 24.3002C118.422 24.1153 118.342 23.944 118.292 23.7659C117.417 20.8593 115.481 19.1559 112.462 18.8089C109.126 18.4253 106.176 19.334 104.553 22.4142C101.792 27.6544 101.767 33.075 104.281 38.3426C101.002 37.4292 97.6116 36.5799 94.141 35.783C93.0587 30.8168 93.6089 25.8277 95.8649 20.9209C100.968 9.82174 114.647 9.76238 121.141 14.1943C124.329 16.368 126.174 19.4185 126.854 23.2134C127.053 24.323 126.788 24.7386 125.616 24.7066Z" fill="white"/>
<path d="M93.5832 12.8195V18.667C93.5832 19.0529 93.2704 19.368 92.8822 19.368H82.7649V33.4195C79.9062 32.8783 77.0201 32.3714 74.1226 31.8965V19.5118H63.9025C63.5143 19.5118 63.1992 19.1967 63.1992 18.8086V12.8149C63.1992 12.4336 63.5097 12.123 63.8911 12.123H92.8868C93.2727 12.123 93.5832 12.4359 93.5832 12.8195Z" fill="white"/>
<path d="M216.731 10.3262C216.642 12.3857 216.555 14.4293 216.468 16.498C215.964 16.1692 215.475 15.8495 214.977 15.5253C214.075 16.9067 213.164 18.2789 212.246 19.6466H212.288L193.012 48.8776C192.841 49.1379 192.548 49.2954 192.238 49.2954C191.582 49.2954 190.916 49.3023 190.231 49.3046C189.546 49.3068 189.164 48.5762 189.521 48.0168C190.016 47.2359 190.471 46.5258 190.927 45.8202C193.069 42.5208 195.179 39.1963 197.387 35.9403C197.994 35.0453 197.957 34.4356 197.391 33.5452C194.82 29.5105 192.329 25.4234 189.815 21.3523L189.806 21.3386C189.386 20.6536 189.877 19.7722 190.681 19.7722C193.268 19.7654 195.727 19.754 198.184 19.8179C198.556 19.8293 199.008 20.3933 199.254 20.7997C200.654 23.1036 202.004 25.4371 203.513 28.0036C205.125 25.4782 206.445 23.3228 208.079 21.0417C208.082 21.0372 208.084 21.0349 208.089 21.0303C209.611 18.6922 211.139 16.3541 212.667 14.0114C212.169 13.6872 211.682 13.3721 211.178 13.041C213.039 12.1323 214.875 11.2349 216.731 10.3262Z" fill="white"/>
<path d="M17.38 7.75293H11.8887V13.2443H17.38V7.75293Z" fill="white"/>
<path d="M61.628 42.7375C61.3312 44.7993 61.0526 46.7538 60.7695 48.7243C60.7193 49.0714 60.4225 49.3271 60.0731 49.3271H35.0275C34.6393 49.3271 34.3242 49.012 34.3242 48.6239V27.0283C42.3386 27.727 51.0289 28.6335 59.8996 29.8003C59.8973 30.8255 59.8813 31.8301 59.8265 32.8302C59.8105 33.1293 58.9771 33.6157 58.5182 33.6202C53.8511 33.6796 49.184 33.6545 44.5146 33.6522H43.4712C43.083 33.6522 42.7679 33.9673 42.7679 34.3555V41.2305C42.7679 41.6187 43.083 41.9338 43.4712 41.9338H60.9316C61.3586 41.9338 61.6874 42.3151 61.628 42.7375Z" fill="white"/>
<path d="M30.0759 38.5065C29.9206 43.0344 27.7789 46.4456 23.5867 48.2357C18.31 50.4871 12.8552 50.5693 7.5305 48.407C2.93419 46.5415 0.680566 42.8974 0.00698913 38.1389C-0.0523769 37.7211 0.274136 37.3466 0.694265 37.3466H7.97346C8.28627 37.3466 8.55798 37.5567 8.64247 37.8558C9.16078 39.7213 9.9782 41.4201 11.9921 42.1781C14.2137 43.0115 16.4834 43.0823 18.7667 42.3859C20.2234 41.9429 21.0888 40.9817 21.2509 39.4815C21.4244 37.8969 20.9404 36.4653 19.4425 35.7985C17.6387 34.9971 15.707 34.4902 13.8438 33.8212C11.2957 32.9056 8.64932 32.1772 6.24043 30.9785C3.62604 29.6747 2.11905 27.4256 1.55964 24.9414C5.15585 25.0853 9.86175 25.3022 15.3714 25.6332C15.4285 25.6355 15.4833 25.6469 15.5381 25.6629C16.1934 25.8639 16.8464 26.0694 17.4949 26.2908C19.7599 27.074 22.0843 27.7499 24.2398 28.7728C28.2858 30.6931 30.2289 34.0587 30.0759 38.5065Z" fill="white"/>
<path d="M123.362 45.0096C121.753 46.7517 119.702 48.1172 117.405 48.8775C113.416 50.1995 109.363 50.2383 105.343 49.0602C100.799 47.729 97.4994 44.8315 95.6613 40.516C94.99 38.9428 94.4831 37.365 94.1406 35.7827C97.6113 36.5796 101.002 37.429 104.281 38.3423C104.352 38.493 104.427 38.6414 104.502 38.7921C105.998 41.749 108.783 42.8039 112.033 42.6098C113.222 42.5367 114.245 42.2399 115.115 41.7353H115.117C118.019 42.7651 120.778 43.8542 123.362 45.0096Z" fill="white"/>
<path d="M82.7657 33.4195V48.5943C82.7657 48.9802 82.4529 49.293 82.067 49.293H74.8198C74.4339 49.293 74.1211 48.9802 74.1211 48.5943V31.8965C77.0186 32.3714 79.9047 32.8783 82.7634 33.4195H82.7657Z" fill="white"/>
<path d="M178.363 30.3004C178.767 30.3118 179.103 29.9853 179.103 29.5789C179.096 27.3892 178.411 26.4644 176.79 26.1653C173.682 25.5899 172.454 26.2315 171.513 29.1176C171.417 29.4145 171.141 29.6177 170.828 29.6177H163.957C163.572 29.6177 163.247 29.314 163.238 28.9281C163.129 24.7634 165.964 21.053 170.305 19.804C173.543 18.8724 176.84 18.8382 180.1 19.6008C185.076 20.763 187.537 23.8112 187.745 29.0263C187.85 31.6818 187.786 34.3441 187.788 37.0042C187.793 40.8013 187.788 44.5962 187.788 48.5646C187.788 48.9619 187.469 49.2861 187.071 49.2861C185.028 49.293 182.758 49.3204 180.491 49.2473C180.091 49.2336 179.703 48.9025 179.212 48.5715C178.998 48.4276 178.717 48.4185 178.495 48.5509C175.76 50.1652 172.266 50.3319 168.714 49.446C164.759 48.4596 162.213 45.2355 161.891 41.1644C161.564 37.0522 163.375 33.5381 167.145 32.0083C169.412 31.0881 171.944 30.7365 174.39 30.3529C175.666 30.1543 176.993 30.2616 178.361 30.2981L178.363 30.3004ZM179.052 36.938C179.025 36.5293 178.653 36.2324 178.246 36.2804C176.463 36.4927 174.666 36.6434 172.919 37.027C171.243 37.3946 170.501 38.7258 170.684 40.3584C170.86 41.9293 171.839 42.8472 173.547 43.0504C177.196 43.4797 179.326 41.2009 179.052 36.938Z" fill="white"/>
<path d="M144.148 18.0985H135.999C135.108 18.0985 134.387 17.377 134.387 16.4865V11.8286C134.387 10.9564 135.085 10.2325 135.958 10.2303C135.962 10.2303 135.969 10.2303 135.974 10.2303C145.461 10.2257 154.95 10.2645 164.437 10.1892C165.983 10.1777 166.291 10.6641 166.278 12.1071C166.264 13.6461 166.278 15.1805 166.269 16.7331C166.262 17.7652 165.94 18.1374 164.885 18.1191C162.102 18.0757 159.316 18.0917 156.416 18.0985C155.526 18.0985 154.806 18.8224 154.806 19.7106V47.5761C154.806 48.4666 154.085 49.1881 153.194 49.1881H147.376C146.486 49.1881 145.764 48.4666 145.764 47.5761V19.7106C145.764 18.8201 145.043 18.0985 144.152 18.0985H144.148Z" fill="white"/>
<path d="M229 0.0625C228.879 2.31156 228.758 4.53779 228.637 6.7937C228.098 6.44207 227.573 6.09957 227.041 5.75251C224.782 9.21629 221.159 14.6232 218.158 19.1418C215.012 24.2839 211.863 28.645 208.648 33.9445C211.713 38.8057 214.781 43.6714 218.01 48.7952C218.145 49.0075 217.989 49.2838 217.741 49.2861C214.596 49.2884 211.658 49.3158 208.724 49.2381C208.365 49.2267 207.938 48.5988 207.692 48.1741C206.281 45.747 204.913 43.2947 203.408 40.6346C201.92 43.2467 200.495 45.6374 199.189 48.0942C198.693 49.0258 198.109 49.3614 197.061 49.334C196.351 49.3158 195.917 49.3066 195.382 49.3021C194.983 49.2975 194.748 48.8523 194.971 48.5212L214.309 19.8588C214.309 19.8588 214.316 19.8474 214.32 19.8428C217.487 14.9885 221.917 8.19565 224.565 4.13593C224.033 3.78658 223.515 3.44865 222.974 3.09702C224.992 2.08095 226.983 1.07857 229 0.0647833V0.0625Z" fill="white"/>
<path d="M17.7863 48.3955H12.2949V53.8869H17.7863V48.3955Z" fill="white"/>
</g>
<defs>
<clipPath id="clip0_0_24398">
<rect width="229" height="75.3789" fill="white" transform="translate(0 0.0625)"/>
</clipPath>
</defs>
</svg>
